<?xml version="1.0" encoding="UTF-8"?>
<svg id="Layer_2" data-name="Layer 2" xmlns="http://www.w3.org/2000/svg" viewBox="0 0 47.69 47.69">
  <defs>
    <style>
      .cls-1 {
        fill: #252826;
      }
    </style>
  </defs>
  <g id="Layer_1-2" data-name="Layer 1">
    <g id="originsWellnessDark">
      <g>
        <g>
          <path class="cls-1" d="M1.52,20.31c0-.46.08-.88.23-1.26s.37-.7.65-.96c.28-.26.61-.47.99-.61.38-.14.8-.21,1.25-.21s.87.07,1.25.21c.38.14.71.35.99.61.28.26.5.59.65.96s.23.8.23,1.26-.08.88-.23,1.26-.37.7-.65.96c-.28.26-.61.47-.99.61-.38.14-.8.21-1.25.21s-.87-.07-1.25-.21c-.38-.14-.71-.35-.99-.61-.28-.26-.5-.59-.65-.96s-.23-.8-.23-1.26ZM2.85,20.31c0,.27.04.52.13.75.08.23.21.42.36.59.16.17.35.3.57.39.22.09.47.14.74.14s.52-.05.74-.14c.22-.09.41-.22.57-.39.16-.17.28-.36.36-.59.08-.23.13-.48.13-.75s-.04-.52-.13-.75c-.08-.23-.21-.43-.36-.59-.16-.17-.35-.3-.57-.39-.22-.09-.47-.14-.74-.14s-.52.05-.74.14c-.22.09-.41.22-.57.39-.16.17-.28.36-.36.59-.08.23-.13.48-.13.75Z"/>
          <path class="cls-1" d="M8.32,17.41h2.24c.29,0,.57.03.84.09.26.06.5.15.7.29.2.13.36.31.48.54.12.23.18.51.18.85,0,.41-.11.76-.32,1.04-.21.29-.52.47-.93.54l1.47,2.45h-1.53l-1.21-2.32h-.63v2.32h-1.28v-5.8ZM9.6,19.81h.75c.11,0,.24,0,.36-.01.13,0,.24-.03.35-.07.1-.04.19-.11.26-.19.07-.09.1-.21.1-.37,0-.15-.03-.26-.09-.35-.06-.09-.14-.15-.23-.2-.09-.05-.2-.08-.32-.09-.12-.02-.24-.02-.35-.02h-.84v1.32Z"/>
          <path class="cls-1" d="M13.29,17.41h1.28v5.8h-1.28v-5.8Z"/>
          <path class="cls-1" d="M20.65,22.8c-.38.2-.77.34-1.18.43-.41.09-.83.13-1.25.13-.45,0-.87-.07-1.25-.21-.38-.14-.71-.35-.99-.61-.28-.26-.5-.59-.65-.96s-.23-.8-.23-1.26.08-.88.23-1.26.37-.7.65-.96c.28-.26.61-.47.99-.61.38-.14.8-.21,1.25-.21s.89.06,1.28.17c.39.11.73.3,1.03.58l-.9.98c-.17-.18-.37-.32-.59-.41-.22-.09-.49-.14-.82-.14-.27,0-.52.05-.74.14-.22.09-.41.22-.57.39-.16.17-.28.36-.36.59-.08.23-.13.48-.13.75s.04.52.13.75c.08.23.21.42.36.59.16.17.35.3.57.39.22.09.47.14.74.14s.52-.03.72-.09c.2-.06.36-.13.48-.19v-.94h-1.04v-1.18h2.27v3.03Z"/>
          <path class="cls-1" d="M21.43,17.41h1.28v5.8h-1.28v-5.8Z"/>
          <path class="cls-1" d="M23.54,17.41h1.74l2.47,4.03h.02v-4.03h1.28v5.8h-1.67l-2.53-4.13h-.02v4.13h-1.28v-5.8Z"/>
          <path class="cls-1" d="M32.76,18.83c-.1-.13-.24-.23-.42-.29-.18-.06-.35-.09-.5-.09-.09,0-.19.01-.29.03-.1.02-.19.06-.28.1-.09.05-.16.11-.21.18-.05.08-.08.17-.08.28,0,.17.07.31.2.4.13.09.3.17.5.24.2.07.41.13.64.2.23.07.44.16.64.28.2.12.36.28.5.48.13.2.2.47.2.81s-.06.6-.18.84c-.12.24-.28.44-.49.6-.2.16-.44.28-.71.35-.27.08-.56.11-.86.11-.38,0-.73-.06-1.05-.17-.32-.11-.62-.3-.9-.56l.91-1c.13.17.3.31.5.41.2.1.41.14.62.14.1,0,.21-.01.32-.04s.2-.06.29-.11c.08-.05.15-.11.2-.19.05-.08.08-.17.08-.27,0-.17-.07-.31-.2-.41-.13-.1-.3-.19-.5-.26-.2-.07-.42-.14-.66-.21-.23-.07-.45-.17-.66-.29-.2-.12-.37-.28-.5-.48-.13-.2-.2-.46-.2-.78s.06-.58.18-.82c.12-.23.29-.43.49-.59.2-.16.44-.28.71-.36.27-.08.54-.12.83-.12.33,0,.64.05.95.14.31.09.58.25.83.47l-.88.96Z"/>
        </g>
        <g>
          <path class="cls-1" d="M1.52,24.67h1.39l.93,3.72h.02l1.21-3.72h1.19l1.2,3.82h.02l.97-3.82h1.29l-1.7,5.8h-1.14l-1.28-4.01h-.02l-1.28,4.01h-1.1l-1.72-5.8Z"/>
          <path class="cls-1" d="M10.04,24.67h3.94v1.18h-2.66v1.08h2.51v1.18h-2.51v1.18h2.81v1.18h-4.09v-5.8Z"/>
          <path class="cls-1" d="M14.88,24.67h1.28v4.62h2.37v1.18h-3.65v-5.8Z"/>
          <path class="cls-1" d="M18.95,24.67h1.28v4.62h2.37v1.18h-3.65v-5.8Z"/>
          <path class="cls-1" d="M22.97,24.67h1.74l2.47,4.03h.02v-4.03h1.28v5.8h-1.67l-2.53-4.13h-.02v4.13h-1.28v-5.8Z"/>
          <path class="cls-1" d="M29.37,24.67h3.94v1.18h-2.66v1.08h2.51v1.18h-2.51v1.18h2.81v1.18h-4.09v-5.8Z"/>
          <path class="cls-1" d="M37.02,26.09c-.1-.13-.24-.23-.42-.29-.18-.06-.35-.09-.5-.09-.09,0-.19.01-.29.03-.1.02-.19.06-.28.1-.09.05-.16.11-.21.18-.05.08-.08.17-.08.28,0,.17.07.31.2.4.13.09.3.17.5.24.2.07.41.13.64.2.23.07.44.16.64.28.2.12.36.28.5.48.13.2.2.47.2.81s-.06.6-.18.84c-.12.24-.28.44-.49.6-.2.16-.44.28-.71.35-.27.08-.56.11-.86.11-.38,0-.73-.06-1.05-.17-.32-.11-.62-.3-.9-.56l.91-1c.13.17.3.31.5.41.2.1.41.14.62.14.1,0,.21-.01.32-.04.11-.02.2-.06.29-.11.08-.05.15-.11.2-.19.05-.08.08-.17.08-.27,0-.17-.07-.31-.2-.41-.13-.1-.3-.19-.5-.26-.2-.07-.42-.14-.66-.21-.23-.07-.45-.17-.66-.29-.2-.12-.37-.28-.5-.48-.13-.2-.2-.46-.2-.78s.06-.58.18-.82c.12-.23.29-.43.49-.59.2-.16.44-.28.71-.36.27-.08.54-.12.83-.12.33,0,.64.05.95.14.31.09.58.25.83.47l-.88.96Z"/>
          <path class="cls-1" d="M41.39,26.09c-.1-.13-.24-.23-.42-.29-.18-.06-.35-.09-.5-.09-.09,0-.19.01-.29.03-.1.02-.19.06-.28.1-.09.05-.16.11-.21.18-.05.08-.08.17-.08.28,0,.17.07.31.2.4.13.09.3.17.5.24.2.07.41.13.64.2.23.07.44.16.64.28.2.12.36.28.5.48.13.2.2.47.2.81s-.06.6-.18.84c-.12.24-.28.44-.49.6-.2.16-.44.28-.71.35-.27.08-.56.11-.86.11-.38,0-.73-.06-1.05-.17-.32-.11-.62-.3-.9-.56l.91-1c.13.17.3.31.5.41.2.1.41.14.62.14.1,0,.21-.01.32-.04.11-.02.2-.06.29-.11.08-.05.15-.11.2-.19.05-.08.08-.17.08-.27,0-.17-.07-.31-.2-.41-.13-.1-.3-.19-.5-.26-.2-.07-.42-.14-.66-.21-.23-.07-.45-.17-.66-.29-.2-.12-.37-.28-.5-.48-.13-.2-.2-.46-.2-.78s.06-.58.18-.82c.12-.23.29-.43.49-.59.2-.16.44-.28.71-.36.27-.08.54-.12.83-.12.33,0,.64.05.95.14.31.09.58.25.83.47l-.88.96Z"/>
        </g>
        <g>
          <path class="cls-1" d="M43.86,24.72h-.49v1.32h-.18v-1.32h-.49v-.16h1.16v.16Z"/>
          <path class="cls-1" d="M43.98,24.55h.26l.5,1.17h0l.51-1.17h.26v1.49h-.18v-1.25h0l-.53,1.25h-.11l-.53-1.25h0v1.25h-.18v-1.49Z"/>
        </g>
      </g>
      <path class="cls-1" d="M47.38,47.69H.31c-.17,0-.31-.14-.31-.31V.31c0-.17.14-.31.31-.31h47.06c.17,0,.31.14.31.31v47.06c0,.17-.14.31-.31.31ZM.63,47.06h46.43V.63H.63v46.43Z"/>
    </g>
  </g>
</svg>