<?xml version="1.0" encoding="UTF-8"?>
<svg id="Layer_2" data-name="Layer 2" xmlns="http://www.w3.org/2000/svg" viewBox="0 0 77.97 47.69">
  <defs>
    <style>
      .cls-1 {
        fill: #252826;
      }

      .cls-2 {
        fill: #659c75;
      }
    </style>
  </defs>
  <g id="Layer_1-2" data-name="Layer 1">
    <g id="OriginsClinicalDark">
      <g>
        <path class="cls-2" d="M10.05,29.21c-.86.39-1.84.59-2.96.59-1.02,0-1.96-.17-2.82-.5-.86-.34-1.61-.81-2.24-1.42-.63-.61-1.13-1.35-1.49-2.21-.36-.86-.54-1.8-.54-2.83s.18-2.01.55-2.87c.37-.86.87-1.59,1.52-2.19.65-.6,1.4-1.06,2.27-1.39.87-.32,1.81-.48,2.81-.48.93,0,1.85.16,2.75.49.9.33,1.63.81,2.19,1.44l-2.16,2.16c-.3-.41-.69-.71-1.17-.91-.48-.2-.98-.3-1.49-.3-.56,0-1.07.1-1.54.31-.47.2-.87.49-1.2.85-.34.36-.6.79-.78,1.28-.19.49-.28,1.03-.28,1.61s.09,1.14.28,1.64c.19.5.44.92.77,1.28.33.35.72.63,1.18.83.46.2.96.3,1.51.3.63,0,1.19-.12,1.66-.37.47-.25.85-.57,1.14-.97l2.22,2.09c-.58.67-1.3,1.2-2.16,1.59Z"/>
        <path class="cls-2" d="M12.47,29.44v-14.08h3.11v14.08h-3.11Z"/>
        <path class="cls-2" d="M20.25,17.21c0,.24-.05.46-.14.66-.09.2-.22.38-.37.53-.16.15-.34.27-.56.35-.22.09-.44.13-.68.13-.5,0-.91-.16-1.25-.49-.34-.33-.5-.72-.5-1.18,0-.22.04-.44.13-.64.09-.2.21-.38.37-.53.16-.15.35-.27.56-.36.21-.09.44-.14.69-.14s.46.04.68.13c.22.09.4.2.56.35.15.15.28.33.37.53s.14.43.14.66ZM16.97,29.44v-9.27h3.05v9.27h-3.05Z"/>
        <path class="cls-2" d="M27.62,29.44v-5.06c0-.26-.02-.51-.07-.74-.04-.24-.11-.44-.21-.62-.1-.18-.24-.32-.42-.43-.18-.11-.41-.16-.68-.16s-.51.05-.72.16-.38.25-.51.44c-.14.19-.24.4-.31.64-.07.24-.1.49-.1.75v5.03h-3.07v-9.27h2.96v1.28h.04c.11-.2.26-.39.44-.59.18-.19.39-.36.63-.49.24-.14.51-.25.79-.34.29-.09.59-.13.91-.13.62,0,1.15.11,1.58.34.43.22.78.51,1.05.87.27.35.46.76.58,1.22.12.46.18.92.18,1.38v5.73h-3.07Z"/>
        <path class="cls-2" d="M34.73,17.24c0,.17-.03.34-.1.49-.07.15-.16.28-.28.39-.11.11-.25.2-.41.26-.16.06-.33.1-.5.1-.37,0-.67-.12-.92-.36-.25-.24-.37-.53-.37-.87,0-.17.03-.32.1-.47.06-.15.16-.28.28-.39.12-.11.26-.2.41-.27.16-.07.33-.1.51-.1s.34.03.5.1c.16.06.3.15.41.26.11.11.21.24.28.39s.1.31.1.49ZM31.91,29.44v-9.27h3.05v9.27h-3.05Z"/>
        <path class="cls-2" d="M42.68,23.16c-.17-.22-.41-.4-.71-.54-.3-.14-.6-.2-.91-.2s-.61.07-.88.2c-.26.13-.48.3-.67.52s-.33.47-.44.75c-.11.29-.16.59-.16.91s.05.63.15.91c.1.29.24.54.44.75.19.22.42.39.69.51.27.12.57.19.9.19.31,0,.62-.06.92-.18.3-.12.55-.29.74-.51l1.69,2.07c-.38.37-.88.66-1.49.88-.61.21-1.25.32-1.94.32-.73,0-1.42-.11-2.05-.34s-1.19-.55-1.65-.98c-.47-.43-.84-.95-1.11-1.55-.27-.61-.4-1.3-.4-2.07s.13-1.44.4-2.05c.27-.61.64-1.13,1.11-1.55.47-.43,1.02-.76,1.65-.99.63-.23,1.31-.34,2.03-.34.34,0,.67.03,1,.09.33.06.65.15.95.25.3.11.58.24.84.39.25.16.47.33.66.51l-1.77,2.05Z"/>
        <path class="cls-2" d="M44.9,21.43c.55-.52,1.18-.91,1.91-1.17.73-.26,1.47-.39,2.23-.39s1.44.1,1.98.29c.54.19.98.49,1.31.89.34.4.58.91.74,1.53.15.61.23,1.34.23,2.19v4.67h-2.79v-.99h-.06c-.24.39-.59.68-1.07.89-.48.21-1,.32-1.55.32-.37,0-.76-.05-1.15-.15-.4-.1-.76-.26-1.09-.48-.33-.22-.6-.52-.81-.89-.21-.37-.32-.83-.32-1.38,0-.67.18-1.21.55-1.62.37-.41.84-.73,1.42-.95s1.22-.37,1.93-.45,1.4-.11,2.07-.11v-.15c0-.46-.16-.8-.48-1.01-.32-.22-.72-.33-1.19-.33-.43,0-.85.09-1.26.28-.4.19-.75.41-1.03.67l-1.55-1.66ZM50.5,25.4h-.39c-.34,0-.67.02-1.01.05s-.65.09-.91.18c-.27.09-.49.21-.66.38-.17.17-.26.39-.26.66,0,.17.04.32.12.45.08.12.18.22.31.3.12.07.27.13.43.16.16.03.32.05.47.05.62,0,1.1-.17,1.42-.51.33-.34.49-.8.49-1.39v-.32Z"/>
        <path class="cls-2" d="M54.45,29.44v-14.08h3.11v14.08h-3.11Z"/>
      </g>
      <g>
        <path class="cls-1" d="M14.36,7.43c0,1.04-.18,2-.54,2.86-.36.86-.86,1.6-1.5,2.22-.64.61-1.4,1.09-2.28,1.42-.88.34-1.84.5-2.87.5s-1.98-.17-2.86-.5-1.63-.81-2.27-1.42c-.64-.61-1.14-1.35-1.5-2.22-.36-.86-.54-1.82-.54-2.86s.18-2.01.54-2.86c.36-.85.86-1.57,1.5-2.17.64-.6,1.4-1.05,2.27-1.38.88-.32,1.83-.48,2.86-.48s1.99.16,2.87.48c.88.32,1.64.78,2.28,1.38.64.6,1.14,1.32,1.5,2.17.36.85.54,1.8.54,2.86ZM10.95,7.43c0-.57-.09-1.1-.28-1.6-.19-.5-.44-.92-.77-1.28-.33-.35-.73-.63-1.19-.84s-.98-.31-1.54-.31-1.07.1-1.53.31c-.46.2-.86.48-1.19.84s-.59.78-.77,1.28c-.18.5-.27,1.03-.27,1.6s.09,1.15.28,1.65c.19.5.44.93.77,1.29.33.36.72.64,1.18.85.46.2.97.31,1.53.31s1.07-.1,1.53-.31c.46-.2.86-.49,1.19-.85.34-.36.6-.79.78-1.29.19-.5.28-1.05.28-1.65Z"/>
        <path class="cls-1" d="M20.62,7.15c-.14-.04-.27-.06-.4-.07-.13-.01-.26-.02-.38-.02-.41,0-.75.07-1.03.22-.28.15-.5.33-.67.54-.17.21-.29.44-.36.69s-.11.46-.11.65v4.75h-3.05V4.65h2.94v1.34h.04c.24-.47.57-.86,1.01-1.16.43-.3.94-.45,1.51-.45.12,0,.24,0,.36.02.12.01.21.03.29.06l-.13,2.7Z"/>
        <path class="cls-1" d="M24.68,1.68c0,.24-.05.46-.14.66s-.22.38-.37.53c-.16.15-.34.27-.56.35-.22.09-.44.13-.68.13-.5,0-.91-.16-1.25-.49-.34-.33-.5-.72-.5-1.18,0-.22.04-.44.13-.64.09-.2.21-.38.37-.53.16-.15.35-.27.56-.36.21-.09.44-.14.69-.14s.46.04.68.13c.22.09.4.2.56.35.15.15.28.33.37.53s.14.43.14.66ZM21.4,13.91V4.64h3.05v9.27h-3.05Z"/>
        <path class="cls-1" d="M41.21,1.68c0,.24-.05.46-.14.66s-.22.38-.37.53c-.16.15-.34.27-.56.35-.22.09-.44.13-.68.13-.5,0-.91-.16-1.25-.49-.34-.33-.5-.72-.5-1.18,0-.22.04-.44.13-.64.09-.2.21-.38.37-.53.16-.15.35-.27.56-.36.21-.09.44-.14.69-.14s.46.04.68.13c.22.09.4.2.56.35.15.15.28.33.37.53s.14.43.14.66ZM37.94,13.91V4.64h3.05v9.27h-3.05Z"/>
        <path class="cls-1" d="M48.89,13.91v-5.06c0-.26-.02-.51-.07-.74-.04-.24-.11-.44-.21-.62-.1-.18-.24-.32-.42-.43-.18-.11-.41-.16-.68-.16s-.51.05-.72.16-.38.25-.51.44c-.14.19-.24.4-.31.64-.07.24-.1.49-.1.75v5.03h-3.07V4.64h2.96v1.28h.04c.11-.2.26-.39.44-.59.18-.19.39-.36.63-.49.24-.14.51-.25.79-.34.29-.09.59-.13.91-.13.62,0,1.15.11,1.58.34.43.22.78.51,1.05.87.27.35.46.76.58,1.22.12.46.18.92.18,1.38v5.73h-3.07Z"/>
        <path class="cls-1" d="M59.11,7.37c-.25-.24-.54-.43-.88-.6-.34-.16-.69-.24-1.06-.24-.29,0-.55.06-.79.17-.24.11-.36.3-.36.58s.13.45.4.56.7.24,1.29.37c.35.07.7.18,1.05.32.35.14.67.32.96.54.29.22.51.5.69.82.17.32.26.71.26,1.15,0,.58-.12,1.08-.35,1.48-.24.4-.54.73-.92.98-.38.25-.8.43-1.28.54-.47.11-.94.17-1.42.17-.76,0-1.5-.12-2.23-.36-.73-.24-1.33-.6-1.82-1.07l1.71-1.81c.27.3.61.55,1.01.74.4.2.82.3,1.27.3.25,0,.49-.06.74-.18.24-.12.36-.33.36-.62s-.15-.5-.45-.63c-.3-.14-.76-.28-1.4-.43-.32-.07-.65-.17-.97-.3-.32-.12-.61-.29-.87-.5-.25-.21-.46-.47-.62-.78-.16-.31-.24-.68-.24-1.12,0-.56.12-1.03.35-1.42.24-.39.54-.71.91-.96.37-.25.79-.43,1.24-.55.45-.12.9-.18,1.35-.18.7,0,1.37.11,2.04.33.66.22,1.23.54,1.69.98l-1.68,1.73Z"/>
        <path class="cls-1" d="M33.21,4.64v1.19h-.04c-.32-.5-.75-.86-1.28-1.1-.53-.24-1.09-.35-1.68-.35-.7,0-1.32.13-1.86.4-.55.27-1.01.62-1.39,1.07-.38.45-.67.96-.87,1.55-.2.58-.3,1.2-.3,1.84s.1,1.26.3,1.83c.2.58.49,1.08.87,1.52.38.43.84.78,1.39,1.03.55.25,1.17.38,1.88.38.62,0,1.17-.11,1.66-.34.48-.22.87-.52,1.15-.89h.06v.56c0,.78-.21,1.91-.64,2.38-.43.47-1.09.71-1.98.71-.52,0-1.05-.1-1.59-.29-.54-.19-1.03-.49-1.48-.88l-1.53,2.18c.63.47,1.38.83,2.24,1.08.86.25,1.7.37,2.52.37.65,0,1.25-.07,1.81-.21-.1-.06-.19-.13-.27-.22-.34-.33-.5-.72-.5-1.18,0-.22.04-.44.13-.64.09-.2.21-.38.37-.53.16-.15.35-.27.56-.36.21-.09.44-.14.69-.14s.46.04.68.13c.22.09.4.2.56.35.15.15.28.33.37.53.05.1.08.21.11.33.22-.31.41-.65.56-1.03.26-.67.39-1.96.39-2.87V4.64h-2.89ZM33.03,10.13c-.11.29-.25.53-.45.74-.19.21-.43.38-.71.51-.28.13-.59.2-.94.2s-.65-.07-.92-.2c-.27-.13-.49-.3-.68-.52-.19-.22-.33-.47-.43-.75-.1-.29-.15-.58-.15-.89s.05-.63.15-.91c.1-.29.24-.53.43-.74.19-.21.41-.38.68-.5.27-.12.57-.19.92-.19s.66.06.93.19c.27.12.51.29.71.51.2.22.35.47.46.75.11.29.16.58.16.89s-.05.63-.16.91Z"/>
        <g>
          <path class="cls-1" d="M9.62,34.61c-.27-.35-.63-.62-1.07-.83-.44-.2-.87-.31-1.28-.31-.21,0-.43.02-.64.06-.22.04-.41.11-.59.21-.17.11-.32.24-.44.41-.12.17-.18.38-.18.64,0,.22.05.41.14.56s.23.28.41.39c.18.11.39.21.64.31.25.09.53.19.84.29.45.15.91.31,1.4.49s.92.42,1.32.72c.4.3.73.67.99,1.11s.39.99.39,1.65c0,.76-.14,1.41-.42,1.96s-.65,1.01-1.13,1.37c-.47.36-1.01.63-1.62.8-.61.17-1.24.26-1.88.26-.94,0-1.86-.16-2.74-.49-.88-.33-1.61-.8-2.2-1.41l2.09-2.12c.32.4.75.73,1.28,1,.53.27,1.05.4,1.57.4.24,0,.47-.02.69-.07.22-.05.42-.13.59-.24s.3-.26.4-.45c.1-.19.15-.41.15-.67s-.06-.46-.19-.63c-.12-.17-.3-.33-.53-.47-.23-.14-.52-.27-.86-.39-.34-.12-.73-.24-1.16-.38-.42-.14-.83-.3-1.24-.48-.4-.19-.76-.42-1.08-.72-.32-.29-.57-.65-.76-1.06-.19-.42-.29-.92-.29-1.52,0-.73.15-1.36.45-1.88s.69-.95,1.17-1.28,1.03-.58,1.64-.74c.61-.16,1.22-.23,1.84-.23.74,0,1.51.14,2.28.41.78.27,1.46.68,2.04,1.21l-2.03,2.14Z"/>
          <path class="cls-1" d="M17.88,44.62c-.19.48-.39.92-.62,1.29-.23.38-.5.7-.82.97s-.69.47-1.12.61c-.43.14-.93.2-1.52.2-.29,0-.58-.02-.88-.06-.3-.04-.57-.09-.79-.15l.34-2.57c.15.05.31.09.49.12.18.03.34.05.49.05.47,0,.81-.11,1.02-.33.21-.22.39-.52.54-.92l.3-.76-3.87-9.12h3.39l2.07,5.96h.06l1.84-5.96h3.24l-4.15,10.67Z"/>
          <path class="cls-1" d="M28.05,36.68c-.25-.24-.54-.43-.88-.6-.34-.16-.69-.24-1.06-.24-.29,0-.55.06-.79.17s-.36.3-.36.58.13.45.4.56c.27.11.7.24,1.29.37.35.07.7.18,1.05.32.35.14.67.32.96.54.29.22.51.5.69.82.17.32.26.71.26,1.15,0,.58-.12,1.08-.35,1.48-.24.4-.54.73-.92.98-.38.25-.8.43-1.28.54-.47.11-.94.17-1.42.17-.76,0-1.5-.12-2.22-.36-.73-.24-1.33-.6-1.82-1.07l1.71-1.81c.27.3.61.55,1.01.74.4.2.82.3,1.27.3.25,0,.49-.06.74-.18.24-.12.36-.33.36-.62s-.15-.5-.45-.63c-.3-.14-.76-.28-1.4-.43-.32-.07-.65-.17-.97-.3-.32-.12-.61-.29-.87-.5-.25-.21-.46-.47-.62-.78-.16-.31-.24-.68-.24-1.12,0-.56.12-1.03.35-1.42.24-.39.54-.71.91-.96.37-.25.78-.43,1.24-.55.45-.12.9-.18,1.35-.18.7,0,1.37.11,2.04.33.66.22,1.23.54,1.69.98l-1.68,1.73Z"/>
          <path class="cls-1" d="M34.08,36.22v3.55c0,.44.08.76.25.98.17.22.47.33.9.33.15,0,.31-.01.47-.04.17-.02.31-.06.42-.11l.04,2.23c-.21.07-.48.14-.8.2-.32.06-.65.08-.97.08-.62,0-1.14-.08-1.56-.23-.42-.16-.76-.38-1.01-.67-.25-.29-.44-.64-.55-1.05-.11-.4-.17-.86-.17-1.35v-3.92h-1.49v-2.27h1.47v-2.44h3v2.44h2.18v2.27h-2.18Z"/>
          <path class="cls-1" d="M46.28,38.7v.37c0,.12,0,.24-.02.35h-6.72c.02.26.1.5.23.71.13.21.3.39.5.55s.43.28.69.36c.25.09.52.13.79.13.48,0,.89-.09,1.23-.27s.61-.41.82-.7l2.12,1.34c-.43.63-1.01,1.12-1.72,1.46-.71.34-1.54.51-2.49.51-.7,0-1.35-.11-1.97-.33-.62-.22-1.16-.53-1.63-.95s-.83-.93-1.1-1.54c-.27-.61-.4-1.3-.4-2.09s.13-1.44.39-2.06c.26-.61.61-1.14,1.06-1.56s.97-.76,1.58-1c.61-.24,1.27-.35,1.97-.35s1.31.11,1.88.34c.57.23,1.06.56,1.47,1,.41.43.73.96.96,1.58.23.62.34,1.33.34,2.12ZM43.47,37.52c0-.48-.15-.9-.46-1.25-.3-.35-.76-.52-1.37-.52-.3,0-.57.05-.82.14-.25.09-.47.22-.65.38-.19.16-.34.35-.45.57s-.17.44-.19.68h3.93Z"/>
          <path class="cls-1" d="M59.4,43.22v-5.06c0-.26-.02-.51-.06-.75-.04-.24-.11-.45-.2-.62-.1-.17-.23-.31-.4-.42-.17-.11-.39-.16-.66-.16s-.49.06-.68.17c-.19.11-.35.26-.48.45s-.23.4-.29.64c-.06.24-.09.49-.09.75v5.01h-3.05v-5.29c0-.53-.11-.96-.32-1.27-.21-.31-.55-.47-1.01-.47-.48,0-.86.19-1.13.58-.27.38-.4.86-.4,1.42v5.03h-3.07v-9.27h2.96v1.28h.04c.11-.2.25-.39.42-.58s.37-.35.61-.49c.24-.14.5-.26.79-.34.29-.09.61-.13.96-.13.67,0,1.24.14,1.7.41.47.27.83.66,1.09,1.17.31-.48.71-.87,1.19-1.15.48-.29,1.07-.43,1.77-.43.63,0,1.16.11,1.59.34.43.23.77.53,1.03.89.26.37.45.78.57,1.23.12.45.18.9.18,1.33v5.73h-3.05Z"/>
          <path class="cls-1" d="M69.61,36.68c-.25-.24-.54-.43-.88-.6-.34-.16-.69-.24-1.06-.24-.29,0-.55.06-.79.17-.24.11-.36.3-.36.58s.13.45.4.56.7.24,1.29.37c.35.07.7.18,1.05.32.35.14.67.32.96.54.29.22.51.5.69.82.17.32.26.71.26,1.15,0,.58-.12,1.08-.35,1.48-.24.4-.54.73-.92.98-.38.25-.8.43-1.28.54-.47.11-.94.17-1.42.17-.76,0-1.5-.12-2.23-.36-.73-.24-1.33-.6-1.82-1.07l1.71-1.81c.27.3.61.55,1.01.74.4.2.82.3,1.27.3.25,0,.49-.06.74-.18.24-.12.36-.33.36-.62s-.15-.5-.45-.63c-.3-.14-.76-.28-1.4-.43-.32-.07-.65-.17-.97-.3-.32-.12-.61-.29-.87-.5-.25-.21-.46-.47-.62-.78-.16-.31-.24-.68-.24-1.12,0-.56.12-1.03.35-1.42.24-.39.54-.71.91-.96.37-.25.79-.43,1.24-.55.45-.12.9-.18,1.35-.18.7,0,1.37.11,2.04.33.66.22,1.23.54,1.69.98l-1.68,1.73Z"/>
        </g>
        <g>
          <path class="cls-1" d="M73.55,43.44h-.43v-2.38h-.98v-.33h2.4v.33h-.98v2.38Z"/>
          <path class="cls-1" d="M76.39,42.81h0l.91-2.09h.67v2.72h-.43v-2.27h0l-1.02,2.27h-.27l-1.02-2.27h0v2.27h-.42v-2.72h.67l.92,2.09Z"/>
        </g>
      </g>
    </g>
  </g>
</svg>