<?xml version="1.0" encoding="UTF-8"?>
<svg id="Layer_2" data-name="Layer 2" xmlns="http://www.w3.org/2000/svg" viewBox="0 0 131.61 41.33">
  <defs>
    <style>
      .cls-1 {
        fill: #252826;
      }

      .cls-2 {
        fill: #659c75;
      }
    </style>
  </defs>
  <g id="Layer_1-2" data-name="Layer 1">
    <g id="originsPerformandDark">
      <g>
        <path class="cls-2" d="M12.5,11.34h18.37c.94,0,1.7.27,1.7.61v.67c0,.34-.76.61-1.7.61H12.5c-.94,0-1.7-.27-1.7-.61v-.67c0-.34.76-.61,1.7-.61Z"/>
        <path class="cls-2" d="M1.97,18.45h21.29c1.09,0,1.97.27,1.97.61v.67c0,.34-.88.61-1.97.61H1.97C.88,20.34,0,20.07,0,19.73v-.67c0-.34.88-.61,1.97-.61Z"/>
        <path class="cls-2" d="M8.42,25.56h19.39c.99,0,1.8.27,1.8.61v.67c0,.34-.81.61-1.8.61H8.42c-.99,0-1.8-.27-1.8-.61v-.67c0-.34.81-.61,1.8-.61Z"/>
      </g>
      <g>
        <path class="cls-1" d="M48.34,8.49c-.16-.04-.32-.07-.48-.09-.16-.01-.31-.02-.45-.02-.49,0-.9.09-1.23.27s-.6.39-.8.64c-.2.25-.34.53-.43.82-.09.3-.13.55-.13.78v5.68h-3.64V5.52h3.5v1.6h.04c.28-.56.68-1.02,1.2-1.38.52-.35,1.12-.53,1.8-.53.15,0,.29,0,.43.02.14.01.26.04.34.07l-.16,3.19Z"/>
        <path class="cls-1" d="M53.91,2c0,.28-.06.54-.17.79-.11.24-.26.45-.44.63-.19.18-.41.32-.67.42-.26.1-.53.16-.81.16-.59,0-1.09-.2-1.49-.59-.4-.39-.6-.86-.6-1.41,0-.27.05-.52.16-.77.1-.24.25-.45.44-.63.19-.18.41-.32.67-.43.25-.11.52-.17.82-.17s.55.05.81.16c.26.1.48.24.67.42.18.18.33.39.44.63.11.24.17.51.17.79ZM50.01,16.57V5.52h3.64v11.05h-3.64Z"/>
        <path class="cls-1" d="M68.24,15.53c0,1.08-.16,2.02-.47,2.82-.31.8-.75,1.46-1.31,1.99-.56.52-1.25.92-2.05,1.18-.81.26-1.7.39-2.67.39s-1.98-.15-3.01-.44c-1.03-.3-1.92-.72-2.67-1.29l1.82-2.6c.53.47,1.12.82,1.76,1.05.64.23,1.28.34,1.9.34,1.06,0,1.85-.28,2.36-.84.51-.56.77-1.31.77-2.24v-.67h-.07c-.34.44-.8.8-1.38,1.06-.58.27-1.23.4-1.97.4-.84,0-1.59-.15-2.24-.45-.65-.3-1.2-.71-1.65-1.23-.45-.52-.8-1.12-1.03-1.81-.24-.69-.35-1.42-.35-2.18s.12-1.5.35-2.2c.24-.69.58-1.31,1.03-1.84.45-.53,1-.96,1.65-1.28.65-.32,1.39-.48,2.22-.48.69,0,1.36.14,2,.42.64.28,1.15.72,1.53,1.31h.04v-1.42h3.44v10ZM64.78,10.98c0-.37-.06-.72-.19-1.06-.13-.34-.31-.64-.54-.9-.24-.26-.52-.46-.84-.61-.33-.15-.7-.22-1.11-.22s-.78.07-1.1.22c-.32.15-.59.35-.81.6-.22.25-.39.55-.51.89-.12.34-.18.7-.18,1.09s.06.72.18,1.06c.12.34.29.64.51.9.22.26.49.47.81.62.32.16.68.23,1.1.23s.79-.08,1.12-.23c.33-.16.61-.36.84-.61.23-.25.41-.55.53-.89.13-.34.19-.7.19-1.09Z"/>
        <path class="cls-1" d="M75.07,2c0,.28-.06.54-.17.79-.11.24-.26.45-.44.63-.19.18-.41.32-.67.42-.26.1-.53.16-.81.16-.59,0-1.09-.2-1.49-.59-.4-.39-.6-.86-.6-1.41,0-.27.05-.52.16-.77.1-.24.25-.45.44-.63.19-.18.41-.32.67-.43.25-.11.52-.17.82-.17s.55.05.81.16c.26.1.48.24.67.42.18.18.33.39.44.63.11.24.17.51.17.79ZM71.17,16.57V5.52h3.64v11.05h-3.64Z"/>
        <path class="cls-1" d="M84.94,16.57v-6.03c0-.31-.03-.61-.08-.89-.05-.28-.14-.53-.26-.74-.12-.21-.28-.38-.5-.51-.21-.13-.48-.19-.81-.19s-.61.06-.85.19c-.24.13-.45.3-.61.52-.16.22-.28.48-.37.77-.08.29-.12.59-.12.9v5.99h-3.66V5.52h3.53v1.53h.04c.13-.24.31-.47.52-.7.21-.23.47-.42.75-.59.29-.16.6-.3.94-.4.34-.1.7-.16,1.09-.16.74,0,1.37.13,1.89.4.52.27.94.61,1.25,1.03.32.42.55.91.69,1.45.14.55.21,1.09.21,1.64v6.83h-3.66Z"/>
        <path class="cls-1" d="M97.85,8.78c-.3-.28-.64-.52-1.04-.71-.4-.19-.82-.29-1.26-.29-.34,0-.65.07-.94.2-.29.13-.43.36-.43.69s.16.53.48.67c.32.13.83.28,1.54.44.41.09.83.21,1.25.38.42.16.8.38,1.14.64.34.27.61.59.82.98.21.38.31.84.31,1.38,0,.7-.14,1.28-.42,1.76-.28.48-.65.87-1.1,1.16-.45.3-.96.51-1.52.64-.56.13-1.12.2-1.69.2-.9,0-1.79-.14-2.65-.43s-1.59-.71-2.16-1.28l2.04-2.15c.33.35.72.65,1.2.89.47.24.98.35,1.51.35.3,0,.59-.07.88-.21.29-.14.43-.39.43-.74s-.18-.59-.53-.75c-.35-.16-.91-.33-1.66-.51-.38-.09-.77-.21-1.15-.35-.38-.15-.73-.35-1.03-.6-.3-.25-.55-.56-.74-.93-.19-.37-.29-.81-.29-1.33,0-.67.14-1.23.42-1.7.28-.47.64-.85,1.09-1.14.44-.3.94-.51,1.47-.65.54-.14,1.08-.21,1.61-.21.83,0,1.64.13,2.43.39.79.26,1.46.65,2.01,1.16l-2,2.06Z"/>
        <path class="cls-1" d="M41.48,26.91v.33c0,.11,0,.22-.02.32h-6.02c.02.23.09.44.21.63.12.19.27.35.45.49.18.14.39.25.62.33.23.08.46.12.71.12.43,0,.8-.08,1.1-.24.3-.16.54-.37.73-.63l1.9,1.2c-.39.57-.9,1-1.54,1.31-.64.31-1.38.46-2.23.46-.62,0-1.21-.1-1.77-.29-.56-.19-1.04-.48-1.46-.85s-.74-.83-.98-1.38c-.24-.54-.36-1.17-.36-1.87s.12-1.29.35-1.84c.23-.55.55-1.02.95-1.4s.87-.68,1.42-.89c.54-.21,1.13-.32,1.77-.32s1.17.1,1.68.31c.51.21.95.5,1.32.89.37.39.65.86.86,1.42.21.56.31,1.19.31,1.9ZM38.96,25.86c0-.43-.14-.81-.41-1.12-.27-.31-.68-.47-1.23-.47-.27,0-.51.04-.73.13-.22.08-.42.2-.58.34-.17.14-.3.31-.4.51s-.16.4-.17.61h3.52Z"/>
        <path class="cls-1" d="M48.56,24.9c-.12-.03-.24-.06-.36-.07s-.23-.02-.34-.02c-.37,0-.68.07-.93.2-.25.13-.45.29-.6.48-.15.19-.26.39-.33.62-.07.22-.1.42-.1.58v4.27h-2.73v-8.3h2.63v1.2h.03c.21-.42.51-.77.9-1.03.39-.27.84-.4,1.35-.4.11,0,.22,0,.33.02.11.01.19.03.26.05l-.12,2.4Z"/>
        <path class="cls-1" d="M54.93,20.38c-.1-.03-.22-.06-.35-.08-.13-.02-.27-.03-.4-.03-.26,0-.46.04-.62.13-.16.09-.28.21-.37.36-.09.15-.15.32-.18.51-.03.19-.05.38-.05.57v.83h1.85v2.05h-1.85v6.25h-2.73v-6.25h-1.52v-2.05h1.52v-.8c0-.51.06-1,.17-1.46.11-.46.3-.87.58-1.22.27-.35.64-.63,1.1-.83.46-.21,1.04-.31,1.73-.31.23,0,.46.01.69.04.23.03.44.07.63.12l-.18,2.17Z"/>
        <path class="cls-1" d="M64.65,26.78c0,.68-.12,1.29-.37,1.84-.24.55-.58,1.02-1,1.4-.42.38-.91.68-1.47.89-.56.21-1.15.32-1.78.32s-1.21-.11-1.78-.32c-.56-.21-1.05-.51-1.47-.89-.42-.38-.75-.85-.99-1.4-.24-.55-.37-1.16-.37-1.84s.12-1.29.37-1.83c.24-.54.58-1.01.99-1.38.42-.38.91-.67,1.47-.87.56-.2,1.15-.3,1.78-.3s1.23.1,1.78.3c.56.2,1.04.49,1.47.87.42.38.76.84,1,1.38.24.54.37,1.16.37,1.83ZM62.02,26.78c0-.27-.04-.53-.13-.78-.09-.26-.22-.48-.38-.68-.17-.19-.37-.35-.62-.48-.24-.12-.53-.18-.85-.18s-.61.06-.85.18c-.24.12-.45.28-.61.48-.16.19-.28.42-.37.68-.08.26-.13.52-.13.78s.04.53.13.78c.08.26.21.49.38.69.17.21.37.37.62.49.24.12.53.18.85.18s.61-.06.85-.18c.24-.12.45-.29.62-.49.17-.21.29-.44.38-.69.08-.26.13-.52.13-.78Z"/>
        <path class="cls-1" d="M71.77,24.9c-.12-.03-.24-.06-.36-.07-.12-.01-.23-.02-.34-.02-.37,0-.68.07-.93.2-.25.13-.45.29-.6.48-.15.19-.26.39-.33.62-.07.22-.1.42-.1.58v4.27h-2.73v-8.3h2.63v1.2h.03c.21-.42.51-.77.9-1.03.39-.27.84-.4,1.35-.4.11,0,.22,0,.33.02.11.01.19.03.26.05l-.12,2.4Z"/>
        <path class="cls-1" d="M83.59,30.96v-4.54c0-.23-.02-.46-.05-.68-.03-.22-.09-.4-.18-.56-.09-.16-.21-.28-.36-.37-.15-.09-.35-.14-.59-.14s-.44.05-.61.15-.32.23-.43.4c-.12.17-.2.36-.26.58-.06.22-.08.44-.08.68v4.49h-2.73v-4.74c0-.48-.09-.86-.28-1.13-.19-.28-.49-.42-.9-.42-.43,0-.77.17-1.01.52-.24.34-.36.77-.36,1.27v4.5h-2.75v-8.3h2.65v1.15h.03c.1-.18.23-.35.38-.52.15-.17.33-.31.54-.44.21-.13.45-.23.71-.31s.55-.12.86-.12c.6,0,1.11.12,1.53.37.42.24.74.59.98,1.05.28-.43.63-.78,1.07-1.03.43-.26.96-.38,1.58-.38.57,0,1.04.1,1.43.31s.69.47.93.8c.23.33.4.69.51,1.1.11.41.16.8.16,1.19v5.14h-2.73Z"/>
        <path class="cls-1" d="M88.28,23.8c.49-.47,1.06-.82,1.71-1.05s1.31-.35,1.99-.35,1.29.09,1.78.26c.48.17.88.44,1.18.8.3.36.52.82.66,1.37.14.55.21,1.2.21,1.96v4.18h-2.5v-.88h-.05c-.21.34-.53.61-.96.8-.43.19-.89.28-1.39.28-.33,0-.68-.04-1.03-.13-.36-.09-.68-.23-.98-.43-.29-.2-.54-.47-.73-.8-.19-.33-.28-.74-.28-1.23,0-.6.16-1.08.49-1.45.33-.37.75-.65,1.27-.85s1.09-.33,1.73-.4c.63-.07,1.25-.1,1.85-.1v-.13c0-.41-.14-.71-.43-.91-.29-.19-.64-.29-1.07-.29-.39,0-.76.08-1.13.25-.36.17-.67.37-.93.6l-1.38-1.48ZM93.3,27.35h-.35c-.3,0-.6.01-.91.04s-.58.08-.82.16c-.24.08-.44.19-.59.34-.16.15-.23.35-.23.59,0,.16.04.29.11.4.07.11.16.2.28.27.11.07.24.11.38.14.14.03.28.04.42.04.56,0,.98-.15,1.28-.46s.44-.72.44-1.24v-.28Z"/>
        <path class="cls-1" d="M103.28,30.96v-4.54c0-.23-.02-.46-.06-.67-.04-.21-.1-.4-.19-.56-.09-.16-.21-.29-.38-.38-.16-.09-.36-.14-.61-.14s-.46.05-.64.14c-.18.09-.34.22-.46.39-.12.17-.21.36-.28.58-.06.22-.09.44-.09.68v4.5h-2.75v-8.3h2.65v1.15h.03c.1-.18.23-.35.39-.53.16-.17.35-.32.57-.44.22-.12.45-.22.71-.3s.53-.12.82-.12c.56,0,1.03.1,1.42.3.39.2.7.46.94.78.24.32.41.68.52,1.09.11.41.16.82.16,1.23v5.14h-2.75Z"/>
        <path class="cls-1" d="M113.82,25.35c-.16-.2-.37-.36-.63-.48-.27-.12-.54-.18-.82-.18s-.55.06-.78.17c-.23.12-.43.27-.6.47-.17.19-.3.42-.39.68-.09.26-.14.53-.14.82s.04.56.13.82c.09.26.22.48.39.68.17.19.38.35.62.46.24.11.51.17.81.17.28,0,.55-.05.83-.16.27-.11.49-.26.66-.46l1.52,1.85c-.34.33-.79.59-1.33.78s-1.12.28-1.73.28c-.66,0-1.27-.1-1.83-.3-.57-.2-1.06-.49-1.48-.88s-.74-.85-.98-1.39c-.24-.54-.36-1.16-.36-1.85s.12-1.29.36-1.83c.24-.54.57-1.01.98-1.39.42-.38.91-.68,1.48-.88.57-.21,1.17-.31,1.82-.31.3,0,.6.03.89.08.29.06.58.13.85.23.27.09.52.21.75.35.23.14.43.29.59.46l-1.58,1.83Z"/>
        <path class="cls-1" d="M124.73,26.91v.33c0,.11,0,.22-.02.32h-6.02c.02.23.09.44.21.63.12.19.27.35.45.49.18.14.39.25.62.33.23.08.46.12.71.12.43,0,.8-.08,1.1-.24.3-.16.54-.37.73-.63l1.9,1.2c-.39.57-.9,1-1.54,1.31-.64.31-1.38.46-2.23.46-.62,0-1.21-.1-1.77-.29-.56-.19-1.04-.48-1.46-.85s-.74-.83-.98-1.38c-.24-.54-.36-1.17-.36-1.87s.12-1.29.35-1.84c.23-.55.55-1.02.95-1.4.4-.38.87-.68,1.42-.89.54-.21,1.13-.32,1.77-.32s1.17.1,1.68.31c.51.21.95.5,1.32.89.37.39.65.86.86,1.42.21.56.31,1.19.31,1.9ZM122.21,25.86c0-.43-.14-.81-.41-1.12s-.68-.47-1.23-.47c-.27,0-.51.04-.73.13-.22.08-.42.2-.58.34-.17.14-.3.31-.4.51s-.16.4-.17.61h3.52Z"/>
        <g>
          <path class="cls-1" d="M103.3,41.15v-9.05h2.2v7.14h3.5v1.9h-5.7Z"/>
          <path class="cls-1" d="M109.82,35.66c.37-.36.81-.63,1.31-.81.5-.18,1.01-.27,1.53-.27s.99.07,1.36.2c.37.13.67.34.9.61.23.28.4.63.5,1.05.11.42.16.92.16,1.5v3.21h-1.92v-.68h-.04c-.16.26-.41.47-.73.61-.33.14-.68.22-1.07.22-.26,0-.52-.03-.79-.1s-.52-.18-.75-.33c-.23-.15-.41-.36-.56-.61-.14-.26-.22-.57-.22-.95,0-.46.13-.83.38-1.11s.58-.5.97-.65c.4-.15.84-.26,1.32-.31.49-.05.96-.08,1.42-.08v-.1c0-.32-.11-.55-.33-.7-.22-.15-.49-.22-.82-.22-.3,0-.59.06-.86.19-.28.13-.51.28-.71.46l-1.06-1.14ZM113.67,38.38h-.27c-.23,0-.46.01-.7.03-.23.02-.44.06-.63.12-.18.06-.33.15-.45.26-.12.12-.18.27-.18.45,0,.12.03.22.08.31.06.09.13.15.21.2s.18.09.29.11c.11.02.22.03.32.03.43,0,.75-.12.98-.35.23-.23.34-.55.34-.95v-.22Z"/>
          <path class="cls-1" d="M124.24,37.94c0,.44-.07.87-.2,1.28-.14.41-.33.77-.59,1.08-.26.31-.58.56-.95.75-.38.19-.8.28-1.28.28-.43,0-.83-.09-1.21-.26-.38-.17-.67-.42-.88-.75h-.03v.83h-1.93v-9.66h2.1v3.97h.03c.18-.21.43-.41.75-.59s.72-.27,1.19-.27.88.09,1.25.27.69.42.95.73c.26.31.46.66.6,1.07s.21.83.21,1.27ZM122.22,37.94c0-.2-.03-.4-.1-.6s-.16-.37-.29-.52c-.13-.15-.29-.27-.47-.36-.19-.09-.4-.14-.65-.14s-.45.05-.64.14c-.19.09-.35.22-.48.37-.13.15-.23.33-.31.52-.07.2-.11.4-.11.6s.04.4.11.6c.07.2.17.37.31.52.13.15.29.28.48.37.19.09.4.14.64.14s.46-.05.65-.14c.19-.09.34-.22.47-.37.13-.15.22-.33.29-.53.06-.2.1-.4.1-.61Z"/>
        </g>
        <path class="cls-1" d="M38.23,5.25c-.43-1.01-1.02-1.87-1.79-2.58-.76-.71-1.67-1.26-2.72-1.64-1.05-.38-2.19-.58-3.42-.58s-2.36.19-3.4.58c-1.04.38-1.94.93-2.71,1.64-.76.71-1.36,1.57-1.79,2.58-.43,1.01-.64,2.15-.64,3.4,0,.81.09,1.58.28,2.3h4.26c-.05-.11-.1-.22-.14-.33-.22-.6-.33-1.25-.33-1.96s.11-1.32.32-1.91c.21-.59.52-1.1.92-1.52.4-.42.87-.75,1.42-1,.55-.24,1.15-.37,1.82-.37s1.28.12,1.83.37c.55.24,1.03.58,1.42,1,.39.42.7.93.92,1.52.22.59.33,1.23.33,1.91s-.11,1.36-.33,1.96c-.22.6-.53,1.11-.93,1.54-.22.24-.47.45-.74.63-.04.45-.62.8-1.34.8h-8.22c.28.4.59.77.95,1.11.76.73,1.66,1.3,2.71,1.7,1.04.4,2.18.6,3.4.6s2.37-.2,3.42-.6c1.05-.4,1.96-.96,2.72-1.7.76-.73,1.36-1.61,1.79-2.64.43-1.03.64-2.16.64-3.4s-.21-2.39-.64-3.4Z"/>
        <rect class="cls-1" x="23.55" y="27.84" width="2.85" height="3.12"/>
        <path class="cls-1" d="M32.15,21.09c-.24-.46-.57-.83-.98-1.12-.42-.28-.91-.49-1.47-.62-.56-.13-1.16-.19-1.81-.19h-2.18v.7c0,.47-.6.85-1.34.85h-.81v4.49h5.26c.74,0,1.34.38,1.34.85v.09c.34-.12.65-.27.93-.46.43-.29.78-.67,1.03-1.14.26-.47.38-1.05.38-1.74s-.12-1.25-.36-1.71ZM29.49,23.5c-.11.18-.26.33-.46.44-.19.11-.41.19-.66.23-.24.04-.5.07-.77.07h-1.2v-2.78h1.25c.26,0,.5.02.74.05.24.03.45.1.64.2s.34.24.45.42c.11.18.17.41.17.68s-.06.51-.17.69Z"/>
        <g>
          <path class="cls-1" d="M127,41.32h-.45v-2.49h-1.03v-.35h2.5v.35h-1.03v2.49Z"/>
          <path class="cls-1" d="M129.95,40.66h0l.95-2.18h.7v2.83h-.45v-2.37h0l-1.06,2.37h-.29l-1.06-2.37h0v2.37h-.43v-2.83h.7l.96,2.18Z"/>
        </g>
      </g>
    </g>
  </g>
</svg>