<?xml version="1.0" encoding="UTF-8"?>
<svg id="Layer_2" data-name="Layer 2" xmlns="http://www.w3.org/2000/svg" viewBox="0 0 515.07 86.94">
  <defs>
    <style>
      .cls-1 {
        fill: #e3e4e5;
      }
    </style>
  </defs>
  <g id="Layer_1-2" data-name="Layer 1">
    <g>
      <g>
        <path class="cls-1" d="M0,20.08c0-3.06.51-5.83,1.54-8.31,1.03-2.48,2.46-4.6,4.29-6.34,1.84-1.75,4.01-3.09,6.53-4.02,2.52-.94,5.27-1.4,8.26-1.4s5.74.47,8.26,1.4c2.52.94,4.7,2.28,6.53,4.02,1.84,1.75,3.27,3.86,4.29,6.34,1.03,2.48,1.54,5.26,1.54,8.31s-.51,5.83-1.54,8.31c-1.03,2.48-2.46,4.6-4.29,6.34-1.84,1.75-4.01,3.09-6.53,4.02-2.52.94-5.27,1.4-8.26,1.4s-5.74-.47-8.26-1.4c-2.52-.94-4.7-2.28-6.53-4.02-1.84-1.75-3.27-3.86-4.29-6.34-1.03-2.48-1.54-5.25-1.54-8.31ZM8.75,20.08c0,1.8.28,3.45.84,4.94.56,1.49,1.36,2.79,2.4,3.89,1.04,1.1,2.29,1.95,3.75,2.56,1.46.61,3.09.92,4.89.92s3.43-.31,4.89-.92c1.46-.61,2.71-1.47,3.75-2.56,1.04-1.1,1.84-2.39,2.4-3.89.56-1.49.84-3.14.84-4.94s-.28-3.4-.84-4.91c-.56-1.51-1.36-2.82-2.4-3.91-1.04-1.1-2.29-1.95-3.75-2.56-1.46-.61-3.09-.92-4.89-.92s-3.43.31-4.89.92c-1.46.61-2.71,1.47-3.75,2.56-1.04,1.1-1.84,2.4-2.4,3.91-.56,1.51-.84,3.15-.84,4.91Z"/>
        <path class="cls-1" d="M44.81.97h14.79c1.94,0,3.79.19,5.53.57,1.75.38,3.27,1.01,4.59,1.89,1.31.88,2.36,2.07,3.13,3.56.77,1.49,1.16,3.36,1.16,5.59,0,2.7-.7,4.99-2.11,6.88-1.4,1.89-3.46,3.09-6.15,3.59l9.72,16.14h-10.1l-7.99-15.28h-4.16v15.28h-8.42V.97ZM53.23,16.79h4.97c.76,0,1.56-.03,2.4-.08.85-.05,1.61-.22,2.29-.49.68-.27,1.25-.69,1.7-1.27.45-.58.67-1.39.67-2.43,0-.97-.2-1.75-.59-2.32-.4-.58-.9-1.02-1.51-1.32-.61-.31-1.31-.51-2.11-.62-.79-.11-1.57-.16-2.32-.16h-5.51v8.69Z"/>
        <path class="cls-1" d="M77.53.97h8.42v38.22h-8.42V.97Z"/>
        <path class="cls-1" d="M126.06,36.5c-2.48,1.3-5.07,2.23-7.77,2.81-2.7.58-5.45.86-8.26.86-2.99,0-5.74-.47-8.26-1.4-2.52-.94-4.7-2.28-6.53-4.02-1.84-1.75-3.27-3.86-4.29-6.34s-1.54-5.25-1.54-8.31.51-5.83,1.54-8.31,2.46-4.6,4.29-6.34c1.84-1.75,4.01-3.09,6.53-4.02,2.52-.94,5.27-1.4,8.26-1.4s5.88.37,8.45,1.11c2.57.74,4.83,2.01,6.78,3.81l-5.94,6.48c-1.15-1.19-2.45-2.09-3.89-2.7-1.44-.61-3.24-.92-5.4-.92-1.8,0-3.43.31-4.89.92-1.46.61-2.71,1.47-3.75,2.56-1.04,1.1-1.84,2.4-2.4,3.91-.56,1.51-.84,3.15-.84,4.91s.28,3.45.84,4.94c.56,1.49,1.36,2.79,2.4,3.89,1.04,1.1,2.29,1.95,3.75,2.56,1.46.61,3.09.92,4.89.92s3.42-.21,4.75-.62c1.33-.41,2.39-.84,3.19-1.27v-6.21h-6.86v-7.77h14.95v19.98Z"/>
        <path class="cls-1" d="M131.19.97h8.42v38.22h-8.42V.97Z"/>
        <path class="cls-1" d="M145.12.97h11.45l16.25,26.56h.11V.97h8.42v38.22h-11.01l-16.68-27.21h-.11v27.21h-8.42V.97Z"/>
        <path class="cls-1" d="M205.86,10.31c-.68-.86-1.61-1.5-2.78-1.92-1.17-.41-2.28-.62-3.32-.62-.61,0-1.24.07-1.89.22-.65.14-1.26.37-1.84.67-.58.31-1.04.71-1.4,1.21-.36.5-.54,1.12-.54,1.84,0,1.15.43,2.03,1.3,2.65.86.61,1.95,1.13,3.27,1.57,1.31.43,2.73.86,4.24,1.3,1.51.43,2.92,1.04,4.24,1.84,1.31.79,2.4,1.85,3.27,3.19.86,1.33,1.3,3.11,1.3,5.34s-.4,3.98-1.19,5.56c-.79,1.58-1.86,2.9-3.21,3.94-1.35,1.04-2.92,1.82-4.7,2.32-1.78.5-3.66.76-5.64.76-2.48,0-4.79-.38-6.91-1.13-2.12-.76-4.1-1.98-5.94-3.67l5.99-6.59c.86,1.15,1.95,2.04,3.27,2.67,1.31.63,2.67.94,4.08.94.68,0,1.38-.08,2.08-.24s1.33-.4,1.89-.73c.56-.32,1.01-.74,1.35-1.24.34-.5.51-1.1.51-1.78,0-1.15-.44-2.06-1.32-2.73-.88-.67-1.99-1.23-3.32-1.7-1.33-.47-2.77-.94-4.32-1.4-1.55-.47-2.99-1.1-4.32-1.89-1.33-.79-2.44-1.84-3.32-3.13-.88-1.3-1.32-3-1.32-5.13s.4-3.85,1.21-5.4c.81-1.55,1.89-2.84,3.24-3.89,1.35-1.04,2.91-1.83,4.67-2.35,1.76-.52,3.58-.78,5.45-.78,2.16,0,4.25.31,6.26.92,2.02.61,3.83,1.64,5.45,3.08l-5.78,6.32Z"/>
        <path class="cls-1" d="M225.61.97h9.18l6.1,24.51h.11l7.99-24.51h7.83l7.94,25.16h.11l6.42-25.16h8.53l-11.18,38.22h-7.5l-8.42-26.45h-.11l-8.42,26.45h-7.23L225.61.97Z"/>
        <path class="cls-1" d="M281.76.97h25.97v7.77h-17.55v7.13h16.57v7.77h-16.57v7.77h18.52v7.77h-26.94V.97Z"/>
        <path class="cls-1" d="M313.61.97h8.42v30.45h15.6v7.77h-24.02V.97Z"/>
        <path class="cls-1" d="M340.45.97h8.42v30.45h15.6v7.77h-24.02V.97Z"/>
        <path class="cls-1" d="M366.95.97h11.45l16.25,26.56h.11V.97h8.42v38.22h-11.01l-16.68-27.21h-.11v27.21h-8.42V.97Z"/>
        <path class="cls-1" d="M409.12.97h25.97v7.77h-17.55v7.13h16.57v7.77h-16.57v7.77h18.52v7.77h-26.94V.97Z"/>
        <path class="cls-1" d="M459.54,10.31c-.68-.86-1.61-1.5-2.78-1.92-1.17-.41-2.28-.62-3.32-.62-.61,0-1.24.07-1.89.22-.65.14-1.26.37-1.84.67-.58.31-1.04.71-1.4,1.21-.36.5-.54,1.12-.54,1.84,0,1.15.43,2.03,1.3,2.65.86.61,1.95,1.13,3.27,1.57,1.31.43,2.73.86,4.24,1.3,1.51.43,2.92,1.04,4.24,1.84,1.31.79,2.4,1.85,3.27,3.19.86,1.33,1.3,3.11,1.3,5.34s-.4,3.98-1.19,5.56c-.79,1.58-1.86,2.9-3.21,3.94-1.35,1.04-2.92,1.82-4.7,2.32-1.78.5-3.66.76-5.64.76-2.48,0-4.79-.38-6.91-1.13-2.12-.76-4.1-1.98-5.94-3.67l5.99-6.59c.86,1.15,1.95,2.04,3.27,2.67,1.31.63,2.67.94,4.08.94.68,0,1.38-.08,2.08-.24.7-.16,1.33-.4,1.89-.73.56-.32,1.01-.74,1.35-1.24.34-.5.51-1.1.51-1.78,0-1.15-.44-2.06-1.32-2.73-.88-.67-1.99-1.23-3.32-1.7-1.33-.47-2.77-.94-4.32-1.4-1.55-.47-2.99-1.1-4.32-1.89-1.33-.79-2.44-1.84-3.32-3.13-.88-1.3-1.32-3-1.32-5.13s.4-3.85,1.21-5.4c.81-1.55,1.89-2.84,3.24-3.89,1.35-1.04,2.91-1.83,4.67-2.35,1.76-.52,3.58-.78,5.45-.78,2.16,0,4.25.31,6.26.92,2.02.61,3.83,1.64,5.45,3.08l-5.78,6.32Z"/>
        <path class="cls-1" d="M488.37,10.31c-.68-.86-1.61-1.5-2.78-1.92-1.17-.41-2.28-.62-3.32-.62-.61,0-1.24.07-1.89.22-.65.14-1.26.37-1.84.67-.58.31-1.04.71-1.4,1.21-.36.5-.54,1.12-.54,1.84,0,1.15.43,2.03,1.3,2.65.86.61,1.95,1.13,3.27,1.57,1.31.43,2.73.86,4.24,1.3,1.51.43,2.92,1.04,4.24,1.84,1.31.79,2.4,1.85,3.27,3.19.86,1.33,1.3,3.11,1.3,5.34s-.4,3.98-1.19,5.56c-.79,1.58-1.86,2.9-3.21,3.94-1.35,1.04-2.92,1.82-4.7,2.32-1.78.5-3.66.76-5.64.76-2.48,0-4.79-.38-6.91-1.13-2.12-.76-4.1-1.98-5.94-3.67l5.99-6.59c.86,1.15,1.95,2.04,3.27,2.67,1.31.63,2.67.94,4.08.94.68,0,1.38-.08,2.08-.24.7-.16,1.33-.4,1.89-.73.56-.32,1.01-.74,1.35-1.24.34-.5.51-1.1.51-1.78,0-1.15-.44-2.06-1.32-2.73-.88-.67-1.99-1.23-3.32-1.7-1.33-.47-2.77-.94-4.32-1.4-1.55-.47-2.99-1.1-4.32-1.89-1.33-.79-2.44-1.84-3.32-3.13-.88-1.3-1.32-3-1.32-5.13s.4-3.85,1.21-5.4c.81-1.55,1.89-2.84,3.24-3.89,1.35-1.04,2.91-1.83,4.67-2.35,1.76-.52,3.58-.78,5.45-.78,2.16,0,4.25.31,6.26.92,2.02.61,3.83,1.64,5.45,3.08l-5.78,6.32Z"/>
      </g>
      <g>
        <path class="cls-1" d="M94.13,55.63c-1.15-1.55-2.57-2.71-4.27-3.48-1.69-.77-3.46-1.16-5.29-1.16-2.12,0-4.08.43-5.86,1.3s-3.32,2.02-4.62,3.48c-1.3,1.46-2.3,3.15-3.02,5.07-.72,1.93-1.08,3.93-1.08,6.02,0,2.23.36,4.31,1.08,6.24.72,1.93,1.72,3.6,3,5.02,1.28,1.42,2.81,2.55,4.59,3.37,1.78.83,3.75,1.24,5.91,1.24,2.34,0,4.43-.46,6.26-1.38,1.84-.92,3.44-2.24,4.8-3.97l3.4,2.86c-1.73,2.3-3.81,4-6.24,5.07-2.43,1.08-5.17,1.62-8.23,1.62-2.74,0-5.29-.5-7.67-1.51-2.38-1.01-4.44-2.4-6.18-4.18-1.75-1.78-3.11-3.9-4.1-6.34-.99-2.45-1.48-5.13-1.48-8.04s.48-5.43,1.43-7.88c.95-2.45,2.29-4.57,4.02-6.37,1.73-1.8,3.78-3.22,6.15-4.27,2.38-1.04,4.98-1.57,7.83-1.57,2.59,0,5.08.47,7.48,1.4,2.39.94,4.4,2.47,6.02,4.59l-3.94,2.86Z"/>
        <path class="cls-1" d="M120.96,86.94c-2.92,0-5.59-.5-8.02-1.51-2.43-1.01-4.54-2.4-6.32-4.18-1.78-1.78-3.17-3.9-4.16-6.37-.99-2.46-1.48-5.14-1.48-8.02s.49-5.55,1.48-8.02c.99-2.47,2.38-4.59,4.16-6.37s3.89-3.18,6.32-4.18c2.43-1.01,5.1-1.51,8.02-1.51s5.59.5,8.02,1.51c2.43,1.01,4.53,2.4,6.32,4.18s3.17,3.91,4.16,6.37c.99,2.47,1.48,5.14,1.48,8.02s-.5,5.55-1.48,8.02c-.99,2.47-2.38,4.59-4.16,6.37-1.78,1.78-3.89,3.18-6.32,4.18-2.43,1.01-5.1,1.51-8.02,1.51ZM120.96,82.73c2.23,0,4.27-.41,6.13-1.24,1.85-.83,3.45-1.96,4.78-3.4,1.33-1.44,2.37-3.12,3.1-5.05.74-1.93,1.11-3.99,1.11-6.18s-.37-4.26-1.11-6.18c-.74-1.93-1.77-3.61-3.1-5.05-1.33-1.44-2.92-2.57-4.78-3.4-1.85-.83-3.9-1.24-6.13-1.24s-4.27.41-6.13,1.24c-1.85.83-3.45,1.96-4.78,3.4-1.33,1.44-2.37,3.12-3.1,5.05-.74,1.93-1.11,3.99-1.11,6.18s.37,4.26,1.11,6.18c.74,1.93,1.77,3.61,3.1,5.05,1.33,1.44,2.92,2.57,4.78,3.4,1.85.83,3.9,1.24,6.13,1.24Z"/>
        <path class="cls-1" d="M146.06,47.74h9.77c1.84,0,3.66.11,5.48.32,1.82.22,3.45.68,4.89,1.4,1.44.72,2.61,1.77,3.51,3.16.9,1.39,1.35,3.27,1.35,5.64,0,2.81-.85,5.07-2.54,6.8-1.69,1.73-4.03,2.83-7.02,3.29l10.85,17.6h-5.56l-10.37-17.17h-5.83v17.17h-4.54v-38.22ZM150.6,64.59h4.05c1.26,0,2.56-.04,3.91-.11,1.35-.07,2.59-.31,3.73-.7,1.13-.4,2.07-1.02,2.81-1.86.74-.85,1.11-2.06,1.11-3.64,0-1.37-.27-2.47-.81-3.29-.54-.83-1.25-1.47-2.13-1.92-.88-.45-1.87-.75-2.97-.89-1.1-.14-2.21-.22-3.32-.22h-6.37v12.63Z"/>
        <path class="cls-1" d="M176.89,47.74h11.34c1.76,0,3.45.17,5.05.51,1.6.34,3.02.92,4.27,1.73,1.24.81,2.23,1.89,2.97,3.24.74,1.35,1.11,3.01,1.11,4.99,0,2.09-.4,3.82-1.19,5.18-.79,1.37-1.81,2.45-3.05,3.24-1.24.79-2.6,1.35-4.08,1.67-1.48.32-2.88.49-4.21.49h-7.67v17.17h-4.54v-38.22ZM181.42,64.59h7.67c2.27,0,4.11-.51,5.53-1.54,1.42-1.03,2.13-2.62,2.13-4.78s-.71-3.75-2.13-4.78c-1.42-1.03-3.27-1.54-5.53-1.54h-7.67v12.63Z"/>
        <path class="cls-1" d="M224.51,86.94c-2.92,0-5.59-.5-8.02-1.51-2.43-1.01-4.54-2.4-6.32-4.18-1.78-1.78-3.17-3.9-4.16-6.37-.99-2.46-1.48-5.14-1.48-8.02s.49-5.55,1.48-8.02c.99-2.47,2.38-4.59,4.16-6.37s3.89-3.18,6.32-4.18c2.43-1.01,5.1-1.51,8.02-1.51s5.59.5,8.02,1.51c2.43,1.01,4.53,2.4,6.32,4.18,1.78,1.78,3.17,3.91,4.16,6.37.99,2.47,1.48,5.14,1.48,8.02s-.5,5.55-1.48,8.02c-.99,2.47-2.38,4.59-4.16,6.37-1.78,1.78-3.89,3.18-6.32,4.18-2.43,1.01-5.1,1.51-8.02,1.51ZM224.51,82.73c2.23,0,4.27-.41,6.13-1.24,1.85-.83,3.45-1.96,4.78-3.4,1.33-1.44,2.37-3.12,3.1-5.05.74-1.93,1.11-3.99,1.11-6.18s-.37-4.26-1.11-6.18c-.74-1.93-1.77-3.61-3.1-5.05-1.33-1.44-2.92-2.57-4.78-3.4-1.85-.83-3.9-1.24-6.13-1.24s-4.27.41-6.13,1.24c-1.85.83-3.45,1.96-4.78,3.4-1.33,1.44-2.37,3.12-3.1,5.05-.74,1.93-1.11,3.99-1.11,6.18s.37,4.26,1.11,6.18c.74,1.93,1.77,3.61,3.1,5.05,1.33,1.44,2.92,2.57,4.78,3.4,1.85.83,3.9,1.24,6.13,1.24Z"/>
        <path class="cls-1" d="M249.61,47.74h9.77c1.84,0,3.66.11,5.48.32,1.82.22,3.45.68,4.89,1.4,1.44.72,2.61,1.77,3.51,3.16.9,1.39,1.35,3.27,1.35,5.64,0,2.81-.85,5.07-2.54,6.8-1.69,1.73-4.03,2.83-7.02,3.29l10.85,17.6h-5.56l-10.37-17.17h-5.83v17.17h-4.54v-38.22ZM254.15,64.59h4.05c1.26,0,2.56-.04,3.91-.11,1.35-.07,2.59-.31,3.72-.7,1.13-.4,2.07-1.02,2.81-1.86.74-.85,1.11-2.06,1.11-3.64,0-1.37-.27-2.47-.81-3.29-.54-.83-1.25-1.47-2.13-1.92-.88-.45-1.87-.75-2.97-.89-1.1-.14-2.2-.22-3.32-.22h-6.37v12.63Z"/>
        <path class="cls-1" d="M292.86,47.74h4.27l16.25,38.22h-5.29l-3.89-9.39h-19.11l-3.94,9.39h-5.13l16.84-38.22ZM294.91,53.58h-.11l-7.94,18.79h15.6l-7.56-18.79Z"/>
        <path class="cls-1" d="M336.96,51.96h-12.63v34.01h-4.53v-34.01h-12.63v-4.21h29.8v4.21Z"/>
        <path class="cls-1" d="M340.15,47.74h4.54v38.22h-4.54v-38.22Z"/>
        <path class="cls-1" d="M369.79,86.94c-2.92,0-5.59-.5-8.02-1.51-2.43-1.01-4.54-2.4-6.32-4.18-1.78-1.78-3.17-3.9-4.16-6.37-.99-2.46-1.48-5.14-1.48-8.02s.49-5.55,1.48-8.02c.99-2.47,2.38-4.59,4.16-6.37s3.89-3.18,6.32-4.18c2.43-1.01,5.1-1.51,8.02-1.51s5.59.5,8.02,1.51c2.43,1.01,4.54,2.4,6.32,4.18s3.17,3.91,4.16,6.37c.99,2.47,1.48,5.14,1.48,8.02s-.5,5.55-1.48,8.02c-.99,2.47-2.38,4.59-4.16,6.37-1.78,1.78-3.89,3.18-6.32,4.18-2.43,1.01-5.1,1.51-8.02,1.51ZM369.79,82.73c2.23,0,4.27-.41,6.13-1.24,1.85-.83,3.45-1.96,4.78-3.4,1.33-1.44,2.37-3.12,3.1-5.05.74-1.93,1.11-3.99,1.11-6.18s-.37-4.26-1.11-6.18c-.74-1.93-1.77-3.61-3.1-5.05-1.33-1.44-2.92-2.57-4.78-3.4-1.85-.83-3.9-1.24-6.13-1.24s-4.27.41-6.13,1.24c-1.85.83-3.45,1.96-4.78,3.4-1.33,1.44-2.37,3.12-3.1,5.05-.74,1.93-1.11,3.99-1.11,6.18s.37,4.26,1.11,6.18c.74,1.93,1.77,3.61,3.1,5.05,1.33,1.44,2.92,2.57,4.78,3.4,1.85.83,3.9,1.24,6.13,1.24Z"/>
        <path class="cls-1" d="M394.89,47.74h5.72l22.14,31.75h.11v-31.75h4.53v38.22h-5.72l-22.14-31.75h-.11v31.75h-4.53v-38.22Z"/>
      </g>
      <g>
        <path class="cls-1" d="M506.52,1.6h-2.53v6.82h-.91V1.6h-2.53v-.84h5.98v.84Z"/>
        <path class="cls-1" d="M507.15.76h1.35l2.6,6.01h.02l2.62-6.01h1.32v7.67h-.91V1.99h-.02l-2.75,6.43h-.55l-2.75-6.43h-.02v6.43h-.91V.76Z"/>
      </g>
    </g>
  </g>
</svg>