<?xml version="1.0" encoding="UTF-8"?>
<svg id="Layer_2" data-name="Layer 2" xmlns="http://www.w3.org/2000/svg" viewBox="0 0 86.48 30.47">
  <defs>
    <style>
      .cls-1 {
        fill: #252826;
      }

      .cls-2 {
        fill: #659c75;
      }
    </style>
  </defs>
  <g id="Layer_1-2" data-name="Layer 1">
    <g id="originsAtWorkDark">
      <g>
        <g>
          <path class="cls-1" d="M15.39,7.28c0,1.1-.19,2.11-.57,3.02-.38.91-.91,1.69-1.58,2.34-.68.65-1.48,1.15-2.41,1.51-.93.35-1.94.53-3.03.53s-2.1-.18-3.02-.53c-.93-.35-1.73-.86-2.4-1.51-.68-.65-1.2-1.43-1.58-2.34-.38-.91-.57-1.92-.57-3.02s.19-2.12.57-3.02c.38-.9.91-1.66,1.58-2.29.68-.63,1.48-1.12,2.4-1.46s1.93-.51,3.02-.51,2.1.17,3.03.51,1.74.83,2.41,1.46c.68.63,1.2,1.39,1.58,2.29.38.9.57,1.91.57,3.02ZM11.78,7.28c0-.6-.1-1.17-.3-1.69-.2-.52-.47-.97-.82-1.35-.35-.37-.77-.67-1.26-.89-.49-.22-1.03-.32-1.62-.32s-1.13.11-1.61.32c-.49.22-.91.51-1.26.89-.35.37-.63.82-.82,1.35-.19.52-.29,1.09-.29,1.69s.1,1.21.3,1.74.47.99.82,1.37c.35.38.76.68,1.25.9.49.22,1.02.32,1.61.32s1.13-.11,1.61-.32c.49-.22.91-.52,1.26-.9.35-.38.63-.84.83-1.37.2-.53.3-1.11.3-1.74Z"/>
          <path class="cls-1" d="M24.09,14.31l-3.03-5.53h-1.15v5.53h-3.29V.37h5.32c.67,0,1.32.07,1.96.21s1.21.37,1.71.7c.51.33.91.76,1.21,1.3.3.54.45,1.21.45,2.01,0,.95-.26,1.74-.77,2.38-.51.64-1.22,1.1-2.13,1.38l3.64,5.97h-3.94ZM23.95,4.65c0-.33-.07-.59-.21-.8-.14-.2-.32-.36-.53-.47-.22-.11-.46-.19-.73-.23-.27-.04-.53-.06-.78-.06h-1.8v3.25h1.6c.28,0,.56-.02.85-.07.29-.05.55-.13.79-.25s.43-.29.58-.51c.15-.22.23-.51.23-.87Z"/>
          <path class="cls-1" d="M28.69,14.31V.37h3.39v13.94h-3.39Z"/>
          <path class="cls-1" d="M43.96,14.33c-.91.22-1.91.33-2.98.33s-2.14-.18-3.08-.53c-.94-.35-1.75-.85-2.42-1.5-.68-.64-1.2-1.41-1.58-2.31-.38-.9-.57-1.9-.57-3s.19-2.13.58-3.03c.39-.91.92-1.68,1.6-2.31.68-.64,1.48-1.13,2.4-1.47s1.91-.51,2.97-.51,2.13.17,3.07.5c.94.33,1.71.78,2.3,1.35l-2.13,2.42c-.33-.38-.76-.69-1.3-.94-.54-.24-1.15-.36-1.83-.36-.59,0-1.14.11-1.63.32-.5.22-.93.52-1.3.91-.37.39-.65.85-.86,1.38-.2.53-.31,1.11-.31,1.74s.09,1.23.28,1.77c.18.54.46,1,.82,1.39.36.39.81.69,1.34.91s1.14.32,1.82.32c.39,0,.77-.03,1.12-.09s.68-.15.98-.29v-2.54h-2.66v-2.72h5.75v7.38c-.68.35-1.48.64-2.39.87Z"/>
          <path class="cls-1" d="M48.13,14.31V.37h3.39v13.94h-3.39Z"/>
          <path class="cls-1" d="M62.26,14.31l-5.61-9.12h-.06l.08,9.12h-3.27V.37h3.84l5.59,9.1h.06l-.08-9.1h3.27v13.94h-3.82Z"/>
          <path class="cls-1" d="M75.33,4c-.29-.37-.67-.66-1.13-.88-.47-.22-.92-.32-1.35-.32-.22,0-.45.02-.68.06-.23.04-.44.12-.62.23-.18.11-.34.26-.46.43-.12.18-.19.4-.19.68,0,.24.05.43.15.59.1.16.24.3.43.41.19.12.42.23.68.32.26.1.56.2.89.31.47.16.96.33,1.48.52.51.19.98.44,1.4.76.42.31.77.71,1.04,1.17.28.47.41,1.05.41,1.74,0,.8-.15,1.49-.44,2.08-.3.58-.69,1.07-1.19,1.45-.5.38-1.07.66-1.71.85-.64.18-1.31.28-1.99.28-1,0-1.96-.17-2.89-.52-.93-.35-1.71-.84-2.32-1.49l2.21-2.24c.34.42.79.77,1.35,1.05.56.28,1.11.42,1.66.42.25,0,.49-.03.73-.08.24-.05.44-.14.62-.26.18-.12.32-.28.42-.47.1-.2.16-.43.16-.71s-.07-.49-.2-.67c-.13-.18-.32-.35-.56-.5-.24-.15-.54-.29-.91-.41-.36-.12-.77-.26-1.23-.4-.45-.14-.88-.31-1.31-.51-.43-.2-.81-.45-1.14-.76-.33-.31-.6-.68-.81-1.12-.2-.44-.31-.97-.31-1.6,0-.77.16-1.44.47-1.99.32-.55.73-1,1.24-1.36.51-.35,1.09-.61,1.73-.78.64-.16,1.29-.25,1.95-.25.79,0,1.59.14,2.41.43.82.29,1.54.72,2.16,1.28l-2.15,2.26Z"/>
        </g>
        <path class="cls-2" d="M14.94,22.05c0,.76-.1,1.44-.31,2.05s-.5,1.11-.87,1.52c-.37.41-.81.73-1.31.94-.5.21-1.04.32-1.61.32-.53,0-.97-.12-1.31-.35-.34-.23-.54-.54-.59-.93h-.08c-.19.31-.48.6-.88.87-.4.27-.9.41-1.5.41-.45,0-.86-.08-1.21-.25-.35-.17-.66-.4-.9-.7-.25-.3-.44-.66-.57-1.07-.13-.41-.2-.87-.2-1.36,0-.56.09-1.11.27-1.65.18-.54.44-1.02.78-1.44.34-.42.74-.76,1.21-1.02.47-.26,1-.39,1.58-.39.51,0,.93.11,1.26.32.33.21.55.47.64.76h.02l.14-.68h2.17l-.62,3.15c-.07.32-.13.63-.18.92-.05.29-.08.54-.08.74,0,.19.04.35.12.5.08.15.23.22.46.22.4,0,.76-.23,1.07-.69.31-.46.47-1.16.47-2.1,0-.77-.13-1.46-.38-2.05-.25-.59-.61-1.09-1.07-1.49s-1.01-.7-1.64-.91c-.64-.21-1.33-.31-2.1-.31-.82,0-1.56.14-2.24.43-.68.29-1.25.68-1.73,1.18s-.86,1.1-1.12,1.79c-.27.7-.4,1.44-.4,2.25,0,.86.14,1.62.42,2.31.28.68.68,1.26,1.19,1.74.51.48,1.12.85,1.82,1.11s1.47.39,2.32.39c.96,0,1.82-.15,2.58-.45.75-.3,1.43-.72,2.03-1.27l1.26,1.4c-.78.76-1.68,1.32-2.72,1.67s-2.16.53-3.38.53c-1.14,0-2.18-.18-3.13-.55-.95-.37-1.76-.88-2.45-1.53-.68-.65-1.21-1.44-1.59-2.36-.38-.92-.57-1.91-.57-3s.2-2.06.61-2.97c.41-.91.96-1.7,1.65-2.37.69-.67,1.51-1.19,2.45-1.57.94-.38,1.94-.57,3.01-.57.94,0,1.84.14,2.72.41.88.27,1.64.68,2.31,1.23.66.55,1.19,1.23,1.59,2.03.4.81.6,1.75.6,2.84ZM8.74,22.49c0-.2-.02-.39-.05-.58-.03-.19-.09-.35-.17-.5s-.19-.26-.34-.35c-.15-.09-.33-.13-.56-.13-.25,0-.48.08-.68.23s-.37.35-.52.6c-.15.25-.26.52-.34.83-.08.31-.12.61-.12.9,0,.33.08.65.23.95.15.3.44.45.87.45.29,0,.55-.08.76-.23.21-.15.39-.35.52-.59.13-.24.23-.5.3-.78.07-.28.1-.55.1-.8Z"/>
        <g>
          <path class="cls-1" d="M32.16,30.09h-3.39l-2.81-9.6h-.06l-2.81,9.6h-3.41l-4.03-14.19h3.69l2.25,9.44h.06l2.53-9.44h3.57l2.55,9.44h.06l2.29-9.44h3.57l-4.05,14.19Z"/>
          <path class="cls-1" d="M51.23,22.93c0,1.12-.19,2.15-.58,3.08-.39.93-.93,1.72-1.61,2.39-.69.66-1.51,1.17-2.46,1.53s-1.98.54-3.09.54-2.14-.18-3.08-.54-1.76-.87-2.45-1.53c-.69-.66-1.23-1.46-1.61-2.39-.39-.93-.58-1.95-.58-3.08s.19-2.16.58-3.08c.39-.92.93-1.69,1.61-2.34.69-.64,1.5-1.14,2.45-1.48s1.97-.52,3.08-.52,2.14.17,3.09.52,1.77.84,2.46,1.48c.69.64,1.23,1.42,1.61,2.34.39.92.58,1.94.58,3.08ZM47.56,22.93c0-.61-.1-1.19-.3-1.72-.2-.53-.48-.99-.83-1.37-.35-.38-.78-.68-1.28-.9-.5-.22-1.05-.33-1.65-.33s-1.15.11-1.64.33c-.49.22-.92.52-1.28.9-.36.38-.64.84-.83,1.37-.19.53-.29,1.11-.29,1.72s.1,1.23.3,1.77c.2.54.48,1.01.83,1.39.35.39.78.69,1.27.91.49.22,1.04.33,1.64.33s1.15-.11,1.64-.33c.49-.22.92-.52,1.28-.91.36-.39.64-.85.84-1.39.2-.54.3-1.13.3-1.77Z"/>
          <path class="cls-1" d="M60.09,30.09l-3.08-5.63h-1.17v5.63h-3.35v-14.19h5.41c.68,0,1.35.07,2,.21.65.14,1.23.38,1.74.71.51.33.93.78,1.23,1.32.31.55.46,1.23.46,2.05,0,.96-.26,1.77-.78,2.43-.52.66-1.24,1.12-2.17,1.4l3.71,6.07h-4.01ZM59.95,20.24c0-.33-.07-.6-.21-.81-.14-.21-.32-.37-.54-.48-.22-.11-.47-.19-.75-.23-.28-.04-.54-.06-.8-.06h-1.83v3.31h1.63c.28,0,.57-.02.87-.07.3-.05.56-.13.81-.25.24-.12.44-.29.59-.52.15-.23.23-.52.23-.88Z"/>
          <path class="cls-1" d="M73.44,30.09l-5.27-6.54h-.04v6.54h-3.35v-14.19h3.35v5.77h.06l5.07-5.77h4.29l-6.11,6.54,6.48,7.66h-4.47Z"/>
        </g>
      </g>
      <g>
        <path class="cls-1" d="M80.08,30.47h-.62v-3.45h-1.43v-.48h3.47v.48h-1.43v3.45Z"/>
        <path class="cls-1" d="M84.19,29.56h.01l1.31-3.02h.97v3.93h-.62v-3.29h-.01l-1.48,3.29h-.4l-1.47-3.29h-.01v3.29h-.6v-3.93h.97l1.33,3.02Z"/>
      </g>
    </g>
  </g>
</svg>