<?xml version="1.0" encoding="UTF-8"?>
<svg id="Layer_2" data-name="Layer 2" xmlns="http://www.w3.org/2000/svg" viewBox="0 0 92.25 28.71">
  <defs>
    <style>
      .cls-1 {
        fill: #e3e4e5;
      }

      .cls-2 {
        fill: #356580;
      }
    </style>
  </defs>
  <g id="Layer_1-2" data-name="Layer 1">
    <g>
      <g>
        <path class="cls-2" d="M15.98,8.39c0,1.27-.2,2.43-.6,3.48-.4,1.05-.96,1.95-1.67,2.7-.71.75-1.56,1.33-2.54,1.74s-2.04.61-3.19.61-2.21-.2-3.18-.61c-.97-.41-1.82-.99-2.53-1.74-.71-.75-1.27-1.65-1.67-2.7-.4-1.05-.6-2.21-.6-3.48s.2-2.45.6-3.48c.4-1.04.96-1.92,1.67-2.64.71-.73,1.55-1.29,2.53-1.68.97-.39,2.03-.59,3.18-.59s2.21.2,3.19.59c.98.39,1.83.95,2.54,1.68.71.73,1.27,1.61,1.67,2.64.4,1.04.6,2.2.6,3.48ZM12.19,8.39c0-.7-.1-1.35-.31-1.95-.21-.6-.49-1.12-.86-1.55-.37-.43-.81-.77-1.33-1.02s-1.09-.37-1.71-.37-1.19.12-1.7.37c-.51.25-.95.59-1.33,1.02-.37.43-.66.95-.86,1.55-.2.61-.3,1.26-.3,1.95s.1,1.39.31,2.01c.21.61.49,1.14.86,1.58.37.44.8.78,1.32,1.03.51.25,1.08.37,1.7.37s1.19-.12,1.7-.37c.51-.25.95-.59,1.33-1.03.37-.44.66-.96.87-1.58.21-.61.31-1.28.31-2.01Z"/>
        <path class="cls-2" d="M25.49,16.49l-3.19-6.37h-1.21v6.37h-3.46V.43h5.6c.7,0,1.39.08,2.06.24.67.16,1.27.43,1.8.81.53.38.96.88,1.27,1.5.32.62.48,1.39.48,2.31,0,1.09-.27,2-.81,2.74-.54.74-1.28,1.27-2.24,1.59l3.83,6.87h-4.15ZM25.35,5.35c0-.38-.07-.68-.22-.92-.15-.23-.33-.42-.56-.54-.23-.13-.49-.22-.77-.26-.28-.05-.56-.07-.82-.07h-1.89v3.74h1.69c.29,0,.59-.03.9-.08.31-.05.58-.15.83-.28s.45-.33.61-.59c.16-.26.24-.59.24-1Z"/>
        <path class="cls-2" d="M30.69,16.49V.43h3.56v16.06h-3.56Z"/>
        <path class="cls-2" d="M47.12,16.51c-.96.26-2.01.39-3.14.39s-2.26-.2-3.24-.61c-.99-.41-1.84-.98-2.55-1.72-.71-.74-1.27-1.63-1.67-2.67-.4-1.04-.6-2.19-.6-3.46s.2-2.45.61-3.49c.41-1.04.97-1.93,1.69-2.67.72-.73,1.56-1.3,2.53-1.69.97-.39,2.01-.59,3.13-.59s2.24.19,3.23.58c.99.39,1.8.9,2.42,1.55l-2.24,2.79c-.35-.44-.8-.8-1.37-1.08-.57-.28-1.21-.42-1.93-.42-.62,0-1.2.12-1.72.37-.53.25-.98.6-1.37,1.04-.39.45-.69.98-.9,1.59-.21.61-.32,1.28-.32,2.01s.1,1.42.29,2.04c.19.62.48,1.15.86,1.6.38.45.85.79,1.41,1.04.56.25,1.2.37,1.92.37.41,0,.81-.03,1.18-.1.37-.07.72-.18,1.04-.33v-2.93h-2.8v-3.13h6.05v8.51c-.72.41-1.56.74-2.52,1Z"/>
        <path class="cls-2" d="M51.85,16.49V.43h3.56v16.06h-3.56Z"/>
        <path class="cls-2" d="M67.09,16.49l-5.91-10.5h-.06l.08,10.5h-3.44V.43h4.04l5.89,10.48h.06l-.08-10.48h3.44v16.06h-4.02Z"/>
        <path class="cls-2" d="M81.2,4.6c-.3-.42-.7-.76-1.19-1.01-.49-.25-.96-.37-1.42-.37-.24,0-.47.02-.72.07-.24.05-.46.13-.65.26-.19.13-.36.29-.49.5-.13.2-.2.46-.2.78,0,.27.05.5.16.68s.26.34.46.48.44.26.72.37c.28.11.59.23.93.35.5.18,1.02.38,1.55.6.54.22,1.03.51,1.47.87.44.36.81.81,1.1,1.35.29.54.44,1.21.44,2.01,0,.92-.16,1.72-.47,2.39-.31.67-.73,1.23-1.25,1.67-.53.44-1.13.76-1.8.98-.68.21-1.37.32-2.09.32-1.05,0-2.07-.2-3.05-.6-.98-.4-1.8-.97-2.45-1.71l2.32-2.59c.36.48.83.89,1.42,1.21.59.33,1.17.49,1.75.49.26,0,.52-.03.77-.09.25-.06.47-.16.65-.29.19-.14.33-.32.45-.54.11-.23.17-.5.17-.82s-.07-.56-.21-.77c-.14-.21-.34-.4-.59-.58-.26-.17-.57-.33-.95-.48-.38-.14-.81-.3-1.3-.46-.47-.17-.93-.36-1.38-.59-.45-.23-.85-.52-1.2-.87-.35-.36-.64-.79-.85-1.29-.21-.51-.32-1.12-.32-1.85,0-.89.17-1.66.5-2.29.33-.64.77-1.16,1.31-1.56.54-.41,1.15-.71,1.82-.9.68-.19,1.36-.28,2.05-.28.83,0,1.68.17,2.54.5.86.33,1.62.82,2.27,1.47l-2.26,2.61Z"/>
      </g>
      <g>
        <g>
          <path class="cls-1" d="M7.38,28.25c-.62.31-1.33.46-2.14.46-.74,0-1.41-.13-2.04-.4-.62-.26-1.16-.64-1.62-1.13s-.82-1.07-1.08-1.74c-.26-.68-.39-1.42-.39-2.24s.13-1.59.4-2.27c.26-.68.63-1.25,1.1-1.73.47-.48,1.01-.84,1.64-1.1.63-.26,1.3-.38,2.03-.38.67,0,1.33.13,1.98.39.65.26,1.18.64,1.58,1.14l-1.56,1.71c-.22-.32-.5-.56-.85-.72-.35-.16-.71-.24-1.08-.24-.4,0-.77.08-1.11.24-.34.16-.63.39-.87.67-.24.28-.43.62-.56,1.01-.13.39-.2.81-.2,1.27s.07.9.2,1.3c.13.39.32.73.56,1.01.24.28.52.5.85.65.33.16.69.24,1.09.24.46,0,.86-.1,1.2-.29.34-.2.61-.45.82-.77l1.6,1.65c-.42.53-.94.95-1.56,1.26Z"/>
          <path class="cls-1" d="M19.24,23.18c0,.82-.13,1.58-.39,2.26-.26.68-.62,1.27-1.08,1.75s-1.01.86-1.65,1.13-1.33.4-2.07.4-1.43-.13-2.06-.4-1.18-.64-1.64-1.13-.82-1.07-1.08-1.75c-.26-.68-.39-1.44-.39-2.26s.13-1.59.39-2.26c.26-.67.62-1.24,1.08-1.71.46-.47,1.01-.83,1.64-1.09.63-.26,1.32-.38,2.06-.38s1.43.13,2.07.38c.64.26,1.19.62,1.65,1.09.46.47.82,1.04,1.08,1.71.26.67.39,1.43.39,2.26ZM16.78,23.18c0-.45-.07-.87-.2-1.27-.13-.39-.32-.73-.56-1.01-.24-.28-.52-.5-.86-.66-.34-.16-.71-.24-1.11-.24s-.77.08-1.1.24c-.33.16-.62.38-.86.66-.24.28-.43.62-.56,1.01-.13.39-.2.81-.2,1.27s.07.91.2,1.3c.13.4.32.74.56,1.02.24.28.52.51.85.67.33.16.7.24,1.1.24s.77-.08,1.1-.24c.33-.16.62-.38.86-.67.24-.28.43-.63.56-1.02.13-.4.2-.83.2-1.3Z"/>
          <path class="cls-1" d="M26.36,28.43l-3.83-6.81h-.04l.05,6.81h-2.23v-10.42h2.62l3.82,6.8h.04l-.05-6.8h2.23v10.42h-2.61Z"/>
          <path class="cls-1" d="M35.52,20.72c-.2-.27-.45-.49-.77-.65-.32-.16-.63-.24-.92-.24-.15,0-.31.01-.46.04s-.3.09-.42.17c-.13.08-.23.19-.32.32-.09.13-.13.3-.13.51,0,.18.03.32.1.44.07.12.17.22.3.31s.28.17.46.24c.18.07.38.15.61.23.32.12.66.25,1.01.39.35.14.67.33.95.57.29.24.52.53.71.88.19.35.28.78.28,1.3,0,.6-.1,1.12-.3,1.55s-.47.8-.81,1.08c-.34.28-.73.5-1.17.63-.44.14-.89.21-1.36.21-.68,0-1.34-.13-1.98-.39-.64-.26-1.17-.63-1.59-1.11l1.51-1.68c.23.31.54.58.92.79.38.21.76.32,1.14.32.17,0,.34-.02.5-.06.16-.04.3-.1.42-.19.12-.09.22-.21.29-.35.07-.15.11-.32.11-.53s-.05-.36-.13-.5c-.09-.14-.22-.26-.38-.38-.17-.11-.37-.22-.62-.31-.25-.09-.53-.19-.84-.3-.3-.11-.6-.24-.89-.38-.29-.15-.55-.34-.78-.57-.23-.23-.41-.51-.55-.84-.14-.33-.21-.73-.21-1.2,0-.58.11-1.07.32-1.49.22-.41.5-.75.85-1.02.35-.26.74-.46,1.18-.58.44-.12.88-.18,1.33-.18.54,0,1.09.11,1.65.32.56.22,1.05.53,1.47.96l-1.47,1.69Z"/>
          <path class="cls-1" d="M45.77,26.22c-.19.51-.47.96-.83,1.32-.36.37-.79.65-1.3.86s-1.07.31-1.69.31-1.19-.1-1.69-.31c-.5-.21-.93-.49-1.28-.86-.35-.37-.62-.81-.81-1.32s-.28-1.09-.28-1.71v-6.49h2.29v6.28c0,.28.03.55.1.81.07.26.17.48.31.68.14.2.32.36.55.48s.5.18.83.18.6-.06.83-.18c.23-.12.41-.28.56-.48.14-.2.25-.43.31-.68.06-.26.09-.52.09-.81v-6.28h2.3v6.49c0,.63-.1,1.2-.29,1.71Z"/>
          <path class="cls-1" d="M47.47,28.43v-10.42h2.31v8.23h3.68v2.19h-6Z"/>
          <path class="cls-1" d="M57.11,20.16v8.27h-2.3v-8.27h-2.69v-2.15h7.68v2.15h-2.69Z"/>
          <path class="cls-1" d="M60.41,28.43v-10.42h2.31v10.42h-2.31Z"/>
          <path class="cls-1" d="M70.29,28.43l-3.83-6.81h-.04l.05,6.81h-2.23v-10.42h2.62l3.82,6.8h.04l-.05-6.8h2.23v10.42h-2.61Z"/>
          <path class="cls-1" d="M81.24,28.45c-.62.17-1.3.25-2.04.25s-1.46-.13-2.1-.4c-.64-.26-1.19-.64-1.65-1.12-.46-.48-.82-1.06-1.08-1.73-.26-.67-.39-1.42-.39-2.24s.13-1.59.4-2.27c.26-.68.63-1.25,1.1-1.73.47-.48,1.01-.84,1.64-1.1.63-.26,1.3-.38,2.03-.38s1.45.13,2.1.38,1.17.59,1.57,1.01l-1.45,1.81c-.22-.28-.52-.52-.89-.7-.37-.18-.78-.27-1.25-.27-.4,0-.78.08-1.12.24-.34.16-.64.39-.89.68-.25.29-.45.63-.58,1.03-.14.4-.21.83-.21,1.3s.06.92.19,1.32c.13.4.31.75.56,1.04.25.29.55.52.91.68.36.16.78.24,1.24.24.27,0,.52-.02.77-.07.24-.04.47-.12.67-.21v-1.9h-1.82v-2.03h3.93v5.52c-.47.26-1.01.48-1.63.65Z"/>
        </g>
        <g>
          <path class="cls-1" d="M85.59,28.71h-.65v-3.59h-1.48v-.5h3.61v.5h-1.48v3.59Z"/>
          <path class="cls-1" d="M89.86,27.76h.01l1.37-3.14h1.01v4.09h-.65v-3.42h-.01l-1.53,3.42h-.41l-1.53-3.42h-.01v3.42h-.63v-4.09h1.01l1.38,3.14Z"/>
        </g>
      </g>
    </g>
  </g>
</svg>