<?xml version="1.0" encoding="UTF-8"?>
<svg id="Layer_2" data-name="Layer 2" xmlns="http://www.w3.org/2000/svg" viewBox="0 0 95.49 42.46">
  <defs>
    <style>
      .cls-1 {
        fill: #e3e4e5;
      }

      .cls-2 {
        fill: #659c75;
      }
    </style>
  </defs>
  <g id="Layer_1-2" data-name="Layer 1">
    <g>
      <g>
        <path class="cls-2" d="M47.2,15.23c0,2.26-.37,4.33-1.1,6.21-.73,1.88-1.77,3.5-3.1,4.86-1.34,1.36-2.94,2.41-4.8,3.17-1.86.75-3.9,1.13-6.11,1.13s-4.24-.38-6.08-1.13c-1.84-.75-3.43-1.81-4.76-3.17-1.34-1.36-2.37-2.98-3.1-4.86-.73-1.88-1.1-3.95-1.1-6.21s.37-4.31,1.1-6.17c.73-1.86,1.76-3.46,3.1-4.8s2.92-2.38,4.76-3.13c1.84-.75,3.86-1.13,6.08-1.13s4.25.38,6.11,1.13c1.86.75,3.46,1.8,4.8,3.13,1.34,1.34,2.37,2.94,3.1,4.8.73,1.86,1.1,3.92,1.1,6.17ZM45.82,15.23c0-1.92-.31-3.74-.94-5.45-.63-1.71-1.54-3.21-2.73-4.48-1.19-1.27-2.63-2.28-4.33-3.01-1.69-.73-3.6-1.1-5.74-1.1s-4.03.37-5.7,1.1c-1.67.73-3.1,1.73-4.29,3.01-1.19,1.28-2.1,2.77-2.73,4.48-.63,1.71-.94,3.53-.94,5.45s.31,3.8.94,5.52c.63,1.71,1.54,3.21,2.73,4.48,1.19,1.28,2.62,2.29,4.29,3.04,1.67.75,3.57,1.13,5.7,1.13s4.04-.38,5.74-1.13c1.69-.75,3.13-1.76,4.33-3.04,1.19-1.27,2.1-2.77,2.73-4.48.63-1.71.94-3.55.94-5.52Z"/>
        <path class="cls-2" d="M65.86,29.71h-1.88L54.58,2.38h-.13l-9.34,27.33h-1.88L34.83.88h1.44l7.9,27.46h.13L53.58.88h1.94l9.34,27.46h.13L72.89.88h1.44l-8.46,28.84Z"/>
      </g>
      <g>
        <path class="cls-1" d="M4.49,38.19c0,.32-.06.61-.17.88-.11.27-.27.5-.46.7s-.43.35-.71.46-.58.17-.91.17-.62-.06-.9-.17c-.28-.11-.51-.27-.71-.46-.2-.2-.35-.43-.46-.7-.11-.27-.17-.56-.17-.88s.06-.61.17-.88c.11-.27.27-.5.46-.7.2-.2.43-.35.71-.46.28-.11.58-.17.9-.17s.63.06.91.17.51.27.71.46.35.43.46.7c.11.27.17.56.17.88ZM3.84,38.19c0-.23-.04-.45-.11-.66-.08-.21-.18-.39-.32-.54-.14-.15-.31-.27-.5-.36-.2-.09-.42-.13-.67-.13s-.47.04-.66.13c-.2.09-.36.21-.5.36-.14.15-.24.33-.32.54-.08.21-.11.43-.11.66s.04.45.11.66c.07.21.18.39.32.54.14.15.3.27.5.36.19.09.42.13.66.13s.47-.04.67-.13c.2-.09.37-.21.5-.36.14-.15.24-.33.32-.54.07-.21.11-.43.11-.66Z"/>
        <path class="cls-1" d="M5.34,36.58c0-.18-.02-.34-.03-.49h.58c.01.11.02.24.03.38,0,.14,0,.25,0,.34h.02c.12-.25.3-.45.54-.6.24-.15.51-.23.81-.23.08,0,.15,0,.21,0s.13.02.19.04l-.08.58s-.1-.02-.18-.04c-.08-.01-.17-.02-.25-.02-.16,0-.32.03-.47.09-.15.06-.28.15-.39.28-.11.13-.2.29-.27.49-.07.2-.1.44-.1.72v2.15h-.61v-3.28c0-.11,0-.26,0-.44Z"/>
        <path class="cls-1" d="M8.89,34.47c0,.13-.04.23-.13.31-.09.08-.19.12-.3.12s-.21-.04-.3-.12-.13-.18-.13-.31.05-.23.13-.31.19-.12.3-.12.21.04.3.12c.09.08.13.18.13.31ZM8.76,40.3h-.61v-4.21h.61v4.21Z"/>
        <path class="cls-1" d="M10.17,41.15c.17.22.4.4.69.55.29.15.6.23.92.23.3,0,.55-.04.76-.13.21-.09.38-.21.51-.36.13-.15.22-.33.28-.53.06-.2.09-.42.09-.64v-.79h-.02c-.16.26-.39.47-.69.61-.3.14-.6.22-.9.22-.33,0-.63-.05-.9-.16-.27-.11-.49-.26-.68-.45-.19-.19-.34-.42-.44-.68-.1-.26-.16-.55-.16-.85s.05-.58.16-.85c.1-.26.25-.49.44-.69.19-.2.42-.35.68-.47.27-.11.57-.17.9-.17.31,0,.61.07.9.22.29.14.52.35.69.62h.02v-.73h.61v4.17c0,.23-.03.47-.09.73s-.18.49-.35.71c-.17.22-.4.4-.7.54-.29.14-.67.22-1.14.22-.39,0-.76-.08-1.12-.22-.35-.15-.66-.36-.91-.62l.44-.47ZM10.28,38.14c0,.22.04.43.11.63.07.2.18.37.31.52.13.15.3.27.5.36.2.09.42.13.67.13.23,0,.45-.04.65-.12.2-.08.37-.19.51-.33.14-.14.26-.32.34-.52.08-.2.12-.42.12-.67,0-.22-.04-.43-.12-.63-.08-.2-.19-.37-.34-.52-.14-.15-.31-.27-.51-.36-.2-.09-.41-.13-.65-.13-.25,0-.48.04-.67.13-.2.09-.36.21-.5.36-.13.15-.24.32-.31.52-.07.2-.11.41-.11.63Z"/>
        <path class="cls-1" d="M15.93,34.47c0,.13-.04.23-.13.31-.09.08-.19.12-.3.12s-.21-.04-.3-.12-.13-.18-.13-.31.05-.23.13-.31.19-.12.3-.12.21.04.3.12c.09.08.13.18.13.31ZM15.8,40.3h-.61v-4.21h.61v4.21Z"/>
        <path class="cls-1" d="M17.53,36.09c.01.11.02.24.03.38,0,.14,0,.25,0,.34h.02c.12-.25.31-.45.58-.6.27-.15.55-.23.85-.23.53,0,.93.16,1.2.48.27.32.4.74.4,1.26v2.58h-.61v-2.33c0-.22-.02-.42-.05-.6s-.1-.33-.18-.46c-.09-.13-.2-.23-.35-.3-.15-.07-.33-.11-.55-.11-.16,0-.32.03-.47.1-.15.07-.29.17-.41.3-.12.13-.22.31-.29.51s-.11.45-.11.73v2.16h-.61v-3.28c0-.11,0-.26,0-.44,0-.18-.02-.34-.03-.49h.58Z"/>
        <path class="cls-1" d="M24,37.09c-.09-.17-.23-.32-.41-.43-.18-.11-.39-.17-.63-.17-.11,0-.22.01-.32.04-.11.02-.2.06-.29.12-.08.05-.15.12-.2.21-.05.08-.08.18-.08.3,0,.2.08.35.24.45s.42.19.76.27c.5.1.87.25,1.1.45.24.19.36.46.36.79,0,.24-.05.44-.14.61-.09.17-.21.3-.36.4-.15.11-.32.18-.51.23s-.38.07-.57.07c-.32,0-.63-.07-.93-.2-.3-.13-.55-.34-.74-.62l.49-.36c.11.19.27.34.48.47.21.13.44.19.69.19.13,0,.26-.01.38-.04.12-.02.22-.07.31-.13.09-.06.16-.14.22-.23.05-.09.08-.21.08-.35,0-.22-.11-.39-.32-.5-.21-.11-.52-.21-.92-.31-.13-.03-.26-.07-.4-.11-.14-.04-.27-.11-.39-.2-.12-.09-.22-.2-.3-.33-.08-.13-.12-.3-.12-.49,0-.22.04-.4.13-.55.08-.15.2-.28.34-.38.14-.1.3-.17.48-.22.18-.05.37-.07.56-.07.29,0,.58.07.85.2.28.13.48.32.62.56l-.47.35Z"/>
        <path class="cls-1" d="M27.18,36.09l1.02,3.42h.02l1.13-3.42h.59l1.15,3.42h.02l1.01-3.42h.65l-1.33,4.21h-.67l-1.12-3.41h-.02l-1.11,3.41h-.67l-1.33-4.21h.66Z"/>
        <path class="cls-1" d="M37.19,38.07v.13s0,.1,0,.15h-3.49c0,.21.05.41.13.59.08.19.19.35.32.49.14.14.3.25.49.33.19.08.39.12.6.12.32,0,.59-.07.82-.22.23-.15.41-.32.53-.51l.46.36c-.25.32-.53.55-.83.68-.3.14-.63.21-.98.21-.31,0-.6-.06-.87-.17-.27-.11-.5-.27-.69-.46-.19-.2-.34-.43-.45-.7-.11-.27-.17-.56-.17-.88s.05-.61.16-.88c.11-.27.26-.5.45-.7.19-.2.42-.35.67-.46.26-.11.54-.17.84-.17.33,0,.62.06.87.17s.46.26.63.45c.17.19.3.41.38.66s.13.52.13.81ZM36.57,37.87c-.02-.4-.15-.72-.38-.99-.24-.26-.57-.39-1.01-.39-.2,0-.39.04-.57.11-.17.08-.33.18-.46.31-.13.13-.24.28-.31.44-.08.17-.12.34-.13.52h2.87Z"/>
        <path class="cls-1" d="M38.69,40.3h-.61v-6.8h.61v6.8Z"/>
        <path class="cls-1" d="M40.51,40.3h-.61v-6.8h.61v6.8Z"/>
        <path class="cls-1" d="M42.24,36.09c.01.11.02.24.03.38,0,.14,0,.25,0,.34h.02c.12-.25.31-.45.58-.6.27-.15.55-.23.85-.23.53,0,.93.16,1.2.48.27.32.4.74.4,1.26v2.58h-.61v-2.33c0-.22-.02-.42-.05-.6s-.1-.33-.18-.46c-.09-.13-.2-.23-.35-.3-.15-.07-.33-.11-.55-.11-.16,0-.32.03-.47.1-.15.07-.29.17-.41.3-.12.13-.22.31-.29.51s-.11.45-.11.73v2.16h-.61v-3.28c0-.11,0-.26,0-.44,0-.18-.02-.34-.03-.49h.58Z"/>
        <path class="cls-1" d="M50.3,38.07v.13s0,.1,0,.15h-3.49c0,.21.05.41.13.59.08.19.19.35.32.49s.3.25.49.33c.19.08.39.12.6.12.32,0,.59-.07.82-.22.23-.15.41-.32.53-.51l.46.36c-.25.32-.53.55-.83.68-.3.14-.63.21-.98.21-.31,0-.6-.06-.87-.17s-.5-.27-.69-.46c-.19-.2-.34-.43-.45-.7-.11-.27-.17-.56-.17-.88s.05-.61.16-.88c.11-.27.26-.5.45-.7.19-.2.42-.35.67-.46s.54-.17.84-.17c.33,0,.62.06.87.17s.46.26.63.45c.17.19.3.41.38.66s.13.52.13.81ZM49.68,37.87c-.02-.4-.15-.72-.38-.99-.24-.26-.57-.39-1.01-.39-.2,0-.39.04-.57.11-.17.08-.33.18-.46.31s-.24.28-.31.44c-.08.17-.12.34-.13.52h2.87Z"/>
        <path class="cls-1" d="M53.41,37.09c-.09-.17-.23-.32-.41-.43-.18-.11-.39-.17-.63-.17-.11,0-.22.01-.32.04-.11.02-.2.06-.29.12-.08.05-.15.12-.2.21-.05.08-.08.18-.08.3,0,.2.08.35.24.45.16.1.42.19.76.27.5.1.87.25,1.1.45.24.19.36.46.36.79,0,.24-.05.44-.14.61-.09.17-.21.3-.36.4-.15.11-.32.18-.51.23s-.38.07-.57.07c-.32,0-.63-.07-.93-.2-.3-.13-.55-.34-.74-.62l.49-.36c.11.19.27.34.48.47.21.13.44.19.69.19.13,0,.26-.01.38-.04.12-.02.22-.07.31-.13.09-.06.16-.14.22-.23.05-.09.08-.21.08-.35,0-.22-.11-.39-.32-.5-.21-.11-.52-.21-.92-.31-.13-.03-.26-.07-.4-.11s-.27-.11-.39-.2c-.12-.09-.22-.2-.3-.33-.08-.13-.12-.3-.12-.49,0-.22.04-.4.13-.55.08-.15.2-.28.34-.38.14-.1.3-.17.48-.22s.37-.07.56-.07c.29,0,.58.07.85.2.28.13.48.32.62.56l-.47.35Z"/>
        <path class="cls-1" d="M56.95,37.09c-.09-.17-.23-.32-.41-.43-.18-.11-.39-.17-.63-.17-.11,0-.22.01-.32.04-.11.02-.2.06-.29.12-.08.05-.15.12-.2.21-.05.08-.08.18-.08.3,0,.2.08.35.24.45.16.1.42.19.76.27.5.1.87.25,1.1.45.24.19.36.46.36.79,0,.24-.05.44-.14.61-.09.17-.21.3-.36.4-.15.11-.32.18-.51.23s-.38.07-.57.07c-.32,0-.63-.07-.93-.2-.3-.13-.55-.34-.74-.62l.49-.36c.11.19.27.34.48.47.21.13.44.19.69.19.13,0,.26-.01.38-.04.12-.02.22-.07.31-.13.09-.06.16-.14.22-.23.05-.09.08-.21.08-.35,0-.22-.11-.39-.32-.5-.21-.11-.52-.21-.92-.31-.13-.03-.26-.07-.4-.11s-.27-.11-.39-.2c-.12-.09-.22-.2-.3-.33-.08-.13-.12-.3-.12-.49,0-.22.04-.4.13-.55.08-.15.2-.28.34-.38.14-.1.3-.17.48-.22s.37-.07.56-.07c.29,0,.58.07.85.2.28.13.48.32.62.56l-.47.35Z"/>
        <path class="cls-1" d="M60.67,42.46h-.61v-6.37h.61v.73h.03c.17-.28.41-.48.7-.63.29-.14.59-.21.89-.21.33,0,.63.06.9.17.27.11.49.27.68.47s.34.43.44.7c.1.27.16.56.16.87s-.05.6-.16.87c-.1.27-.25.5-.44.7s-.42.35-.68.47c-.27.11-.57.17-.9.17-.3,0-.6-.07-.89-.21-.29-.14-.52-.34-.7-.61h-.03v2.87ZM63.81,38.19c0-.23-.04-.45-.11-.66s-.18-.39-.31-.54c-.13-.15-.3-.27-.5-.36-.2-.09-.42-.13-.67-.13-.23,0-.45.04-.65.13-.2.09-.37.21-.51.36-.14.15-.26.33-.34.54-.08.21-.12.43-.12.67s.04.46.12.67c.08.21.19.39.34.54.14.15.31.27.51.36.2.09.41.13.65.13.25,0,.48-.04.67-.13.2-.09.36-.21.5-.36.13-.15.24-.33.31-.54s.11-.43.11-.66Z"/>
        <path class="cls-1" d="M65.31,36.58c0-.18-.02-.34-.03-.49h.58c.01.11.02.24.03.38,0,.14,0,.25,0,.34h.02c.12-.25.3-.45.54-.6.24-.15.51-.23.81-.23.08,0,.15,0,.21,0s.13.02.19.04l-.08.58s-.1-.02-.18-.04c-.08-.01-.17-.02-.25-.02-.16,0-.32.03-.47.09-.15.06-.28.15-.39.28-.11.13-.2.29-.27.49-.07.2-.1.44-.1.72v2.15h-.61v-3.28c0-.11,0-.26,0-.44Z"/>
        <path class="cls-1" d="M72.13,38.19c0,.32-.06.61-.17.88-.11.27-.27.5-.46.7-.2.2-.44.35-.71.46-.28.11-.58.17-.91.17s-.62-.06-.9-.17c-.28-.11-.51-.27-.71-.46s-.35-.43-.46-.7c-.11-.27-.17-.56-.17-.88s.06-.61.17-.88c.11-.27.27-.5.46-.7s.43-.35.71-.46c.28-.11.58-.17.9-.17s.63.06.91.17c.28.11.51.27.71.46.2.2.35.43.46.7.11.27.17.56.17.88ZM71.48,38.19c0-.23-.04-.45-.11-.66s-.18-.39-.32-.54c-.14-.15-.31-.27-.5-.36-.2-.09-.42-.13-.67-.13s-.47.04-.66.13c-.19.09-.36.21-.5.36-.14.15-.24.33-.32.54-.08.21-.11.43-.11.66s.04.45.11.66c.07.21.18.39.32.54.14.15.3.27.5.36.19.09.42.13.66.13s.47-.04.67-.13c.2-.09.37-.21.5-.36.14-.15.24-.33.32-.54s.11-.43.11-.66Z"/>
        <path class="cls-1" d="M76.46,39.59c-.18.27-.41.47-.7.61-.29.14-.58.21-.89.21-.33,0-.63-.06-.9-.17s-.49-.27-.68-.47-.34-.43-.44-.7c-.1-.27-.16-.56-.16-.87s.05-.6.16-.87c.1-.27.25-.5.44-.7s.42-.35.68-.47c.27-.11.57-.17.9-.17.31,0,.6.07.89.21.29.14.52.35.7.63h.02v-3.32h.61v6.8h-.61v-.71h-.02ZM73.34,38.19c0,.23.04.45.11.66s.18.39.31.54c.13.15.3.27.5.36.2.09.42.13.67.13.23,0,.45-.04.65-.13.2-.09.37-.21.51-.36.14-.15.26-.33.34-.54s.12-.43.12-.67-.04-.46-.12-.67-.19-.39-.34-.54c-.14-.15-.31-.27-.51-.36-.2-.09-.41-.13-.65-.13-.25,0-.48.04-.67.13-.2.09-.36.21-.5.36-.13.15-.24.33-.31.54s-.11.43-.11.66Z"/>
        <path class="cls-1" d="M81.34,40.3c-.01-.11-.02-.24-.03-.38,0-.14,0-.25,0-.34h-.02c-.12.25-.31.45-.58.6-.27.15-.55.23-.85.23-.53,0-.93-.16-1.2-.48-.27-.32-.4-.74-.4-1.26v-2.58h.61v2.33c0,.22.02.42.05.6.04.18.1.33.18.46.09.13.2.23.35.3.15.07.33.11.55.11.16,0,.32-.03.47-.1.15-.07.29-.17.41-.3.12-.13.22-.31.29-.51s.11-.45.11-.73v-2.16h.61v3.28c0,.11,0,.26,0,.44,0,.18.01.34.03.49h-.58Z"/>
        <path class="cls-1" d="M86.09,37.05c-.1-.16-.25-.3-.45-.4s-.41-.16-.63-.16c-.25,0-.47.04-.67.13-.2.09-.37.21-.51.36-.14.15-.25.33-.32.54-.08.21-.11.43-.11.67s.04.46.11.67c.07.2.18.38.32.54.14.15.31.27.5.36.2.09.42.13.67.13.27,0,.5-.05.68-.15.19-.1.34-.23.46-.4l.46.34c-.18.22-.4.4-.66.53-.26.13-.57.2-.94.2-.34,0-.65-.06-.93-.17s-.51-.27-.71-.46c-.19-.2-.35-.43-.45-.7-.11-.27-.16-.56-.16-.88s.05-.61.16-.88c.11-.27.26-.5.45-.7.19-.2.43-.35.71-.46s.58-.17.93-.17c.28,0,.57.06.86.18.29.12.53.3.71.54l-.48.34Z"/>
        <path class="cls-1" d="M89,36.6h-1.19v2.46c0,.16.01.29.04.39.03.1.07.18.13.24.06.06.12.1.2.12.08.02.16.03.25.03.08,0,.17-.01.27-.04.09-.02.18-.06.27-.1l.03.53c-.11.04-.22.07-.34.09s-.24.03-.38.03c-.11,0-.23-.02-.36-.04s-.24-.09-.35-.17-.2-.2-.27-.34c-.07-.14-.1-.33-.1-.57v-2.63h-.87v-.51h.87v-1.19h.61v1.19h1.19v.51Z"/>
        <path class="cls-1" d="M91.75,37.09c-.09-.17-.23-.32-.41-.43-.18-.11-.39-.17-.63-.17-.11,0-.22.01-.32.04-.11.02-.2.06-.29.12-.08.05-.15.12-.2.21-.05.08-.08.18-.08.3,0,.2.08.35.24.45.16.1.42.19.76.27.5.1.87.25,1.1.45.24.19.36.46.36.79,0,.24-.05.44-.14.61-.09.17-.21.3-.36.4-.15.11-.32.18-.51.23s-.38.07-.57.07c-.32,0-.63-.07-.93-.2-.3-.13-.55-.34-.74-.62l.49-.36c.11.19.27.34.48.47.21.13.44.19.69.19.13,0,.26-.01.38-.04.12-.02.22-.07.31-.13.09-.06.16-.14.22-.23.05-.09.08-.21.08-.35,0-.22-.11-.39-.32-.5-.21-.11-.52-.21-.92-.31-.13-.03-.26-.07-.4-.11s-.27-.11-.39-.2c-.12-.09-.22-.2-.3-.33-.08-.13-.12-.3-.12-.49,0-.22.04-.4.13-.55.08-.15.2-.28.34-.38.14-.1.3-.17.48-.22s.37-.07.56-.07c.29,0,.58.07.85.2.28.13.48.32.62.56l-.47.35Z"/>
      </g>
      <g>
        <path class="cls-1" d="M93.48,40.41h-.2v-1.08h-.45v-.15h1.09v.15h-.45v1.08Z"/>
        <path class="cls-1" d="M94.77,40.12h0l.41-.95h.3v1.24h-.2v-1.03h0l-.46,1.03h-.12l-.46-1.03h0v1.03h-.19v-1.24h.3l.42.95Z"/>
      </g>
    </g>
  </g>
</svg>