<?xml version="1.0" encoding="UTF-8"?>
<svg id="Layer_2" data-name="Layer 2" xmlns="http://www.w3.org/2000/svg" viewBox="0 0 101.78 47.69">
  <defs>
    <style>
      .cls-1 {
        fill: #252826;
      }

      .cls-2 {
        fill: #659c75;
      }
    </style>
  </defs>
  <g id="Layer_1-2" data-name="Layer 1">
    <g id="originsDesignCoDark">
      <path class="cls-2" d="M43.37,32.59v-1.37h-.04c-.34.54-.82.95-1.45,1.23-.63.29-1.29.43-1.99.43-.79,0-1.49-.16-2.11-.46-.62-.31-1.14-.72-1.57-1.24-.43-.51-.76-1.11-.98-1.78-.23-.68-.34-1.38-.34-2.11s.12-1.43.35-2.1c.23-.67.56-1.26.99-1.76.43-.51.95-.91,1.56-1.2.61-.3,1.3-.44,2.06-.44s1.43.15,1.96.44c.53.3.95.62,1.25.97h.04v-6.56h3.46v15.96h-3.19ZM43.24,27.31c0-.34-.06-.67-.18-.99-.12-.32-.29-.61-.51-.87-.22-.25-.48-.46-.79-.61-.31-.15-.66-.23-1.06-.23s-.77.08-1.08.23c-.31.16-.57.36-.78.6s-.37.53-.47.85c-.11.32-.16.65-.16.99s.05.67.16,1c.11.33.26.62.47.88s.47.46.78.61c.31.15.67.23,1.08.23s.75-.08,1.06-.23c.31-.16.57-.36.79-.61s.39-.54.51-.87c.12-.32.18-.65.18-.99Z"/>
      <path class="cls-2" d="M59.73,27.46v.42c0,.14,0,.27-.02.4h-7.62c.03.3.12.56.26.8.15.24.34.45.57.62.23.18.49.31.78.41.29.1.59.15.9.15.55,0,1.01-.1,1.39-.31.38-.2.69-.47.93-.79l2.41,1.52c-.49.72-1.14,1.27-1.95,1.66-.81.39-1.75.58-2.82.58-.79,0-1.53-.12-2.24-.37-.7-.25-1.32-.6-1.85-1.08-.53-.47-.94-1.05-1.25-1.74-.3-.69-.45-1.48-.45-2.36s.15-1.64.44-2.33c.3-.7.7-1.29,1.2-1.77.51-.49,1.1-.86,1.79-1.13.69-.27,1.44-.4,2.24-.4s1.48.13,2.13.39c.65.26,1.2.64,1.67,1.13.46.49.83,1.09,1.09,1.79.26.7.39,1.51.39,2.41ZM56.54,26.13c0-.55-.17-1.02-.52-1.41-.34-.39-.86-.59-1.55-.59-.34,0-.65.05-.93.16-.28.11-.53.25-.74.43-.21.18-.38.4-.51.64-.13.25-.2.5-.21.77h4.45Z"/>
      <path class="cls-2" d="M68.06,25.18c-.28-.27-.61-.49-.99-.68-.38-.18-.78-.27-1.2-.27-.32,0-.62.06-.9.19s-.41.34-.41.65.15.51.45.63c.3.13.79.27,1.47.42.39.08.79.2,1.19.36.4.16.76.36,1.09.61.32.25.58.56.78.93s.3.8.3,1.31c0,.66-.13,1.22-.4,1.68s-.62.83-1.04,1.11c-.43.28-.91.49-1.45.61s-1.07.19-1.6.19c-.86,0-1.7-.14-2.52-.41s-1.51-.68-2.06-1.21l1.94-2.05c.31.34.69.62,1.14.84.45.23.93.34,1.44.34.28,0,.56-.07.83-.2.27-.13.41-.37.41-.71s-.17-.56-.51-.72-.87-.32-1.58-.49c-.37-.08-.73-.2-1.1-.34-.37-.14-.69-.33-.98-.57-.29-.24-.52-.53-.71-.89-.18-.35-.27-.77-.27-1.27,0-.63.13-1.17.4-1.61.27-.44.61-.81,1.03-1.09.42-.28.89-.49,1.4-.62.51-.13,1.02-.2,1.53-.2.79,0,1.56.12,2.31.37s1.39.62,1.91,1.11l-1.9,1.96Z"/>
      <path class="cls-2" d="M75.01,18.72c0,.27-.05.52-.16.75-.11.23-.25.43-.42.6-.18.17-.39.3-.63.4-.25.1-.5.15-.77.15-.56,0-1.03-.19-1.41-.56-.38-.37-.57-.82-.57-1.34,0-.25.05-.5.15-.73.1-.23.24-.43.42-.6.18-.17.39-.31.63-.41.24-.11.5-.16.78-.16.27,0,.52.05.77.15.25.1.46.23.63.4.18.17.32.37.42.6.11.23.16.48.16.75ZM71.3,32.59v-10.51h3.46v10.51h-3.46Z"/>
      <path class="cls-2" d="M98.3,32.59v-5.74c0-.3-.02-.58-.07-.84-.05-.27-.13-.5-.24-.71-.11-.2-.27-.37-.47-.49-.2-.12-.46-.18-.77-.18s-.58.06-.81.18c-.23.12-.43.29-.58.5-.16.21-.27.45-.35.73s-.12.56-.12.86v5.7h-3.48v-10.51h3.36v1.46h.04c.13-.23.29-.45.5-.67.2-.22.44-.4.72-.56.27-.15.57-.28.9-.38.32-.1.67-.15,1.03-.15.7,0,1.3.13,1.79.38.49.25.89.58,1.19.98.3.4.52.86.65,1.38.13.52.2,1.04.2,1.56v6.5h-3.48Z"/>
      <g>
        <path class="cls-1" d="M32.46,8.35c0,1.18-.2,2.26-.61,3.24-.41.98-.97,1.82-1.7,2.51-.72.7-1.59,1.23-2.59,1.61-1,.38-2.08.57-3.25.57s-2.25-.19-3.24-.57c-.99-.38-1.85-.92-2.58-1.61-.72-.7-1.29-1.53-1.7-2.51-.41-.98-.61-2.06-.61-3.24s.2-2.28.61-3.24c.41-.96.97-1.78,1.7-2.46.72-.68,1.58-1.2,2.58-1.56.99-.37,2.07-.55,3.24-.55s2.25.18,3.25.55c1,.37,1.86.89,2.59,1.56.72.68,1.29,1.5,1.7,2.46.41.96.61,2.04.61,3.24ZM28.6,8.35c0-.65-.11-1.25-.32-1.82-.21-.56-.5-1.04-.88-1.45-.37-.4-.82-.72-1.35-.95-.53-.23-1.11-.35-1.74-.35s-1.21.12-1.73.35c-.52.23-.97.55-1.35.95-.38.4-.67.88-.88,1.45-.2.56-.31,1.17-.31,1.82s.11,1.3.32,1.87c.21.57.5,1.06.88,1.47.37.41.82.73,1.34.96.52.23,1.1.35,1.73.35s1.21-.12,1.73-.35c.52-.23.97-.55,1.35-.96.38-.41.68-.9.89-1.47.21-.57.32-1.19.32-1.87Z"/>
        <path class="cls-1" d="M41.47,8.22c-.16-.04-.31-.07-.45-.08-.15-.01-.29-.02-.43-.02-.46,0-.85.08-1.17.25-.32.17-.57.37-.76.61-.19.24-.33.5-.41.78s-.13.53-.13.74v5.39h-3.46V5.38h3.34v1.52h.04c.27-.54.65-.98,1.14-1.32.49-.34,1.06-.51,1.71-.51.14,0,.28,0,.41.02.13.01.24.04.33.06l-.15,3.06Z"/>
        <path class="cls-1" d="M46.77,2.02c0,.27-.05.52-.16.75-.11.23-.25.43-.42.6-.18.17-.39.3-.63.4-.25.1-.5.15-.77.15-.56,0-1.03-.19-1.41-.56-.38-.37-.57-.82-.57-1.34,0-.25.05-.5.15-.73.1-.23.24-.43.42-.6.18-.17.39-.31.63-.41.24-.11.5-.16.78-.16.27,0,.52.05.77.15.25.1.46.23.63.4.18.17.32.37.42.6.11.23.16.48.16.75ZM43.06,15.88V5.37h3.46v10.51h-3.46Z"/>
        <path class="cls-1" d="M60.6,14.87c0,1.03-.15,1.92-.44,2.68-.3.76-.71,1.39-1.25,1.89-.54.5-1.19.87-1.95,1.12-.77.25-1.61.37-2.54.37s-1.88-.14-2.86-.42c-.98-.28-1.83-.69-2.54-1.22l1.73-2.47c.51.45,1.07.78,1.68,1,.61.22,1.21.33,1.8.33,1.01,0,1.76-.27,2.25-.8.49-.53.73-1.25.73-2.13v-.63h-.06c-.32.42-.76.76-1.31,1.01s-1.18.38-1.88.38c-.8,0-1.51-.14-2.13-.43-.62-.29-1.14-.68-1.57-1.17-.43-.49-.76-1.07-.98-1.72-.23-.65-.34-1.35-.34-2.08s.11-1.43.34-2.09c.22-.66.55-1.25.98-1.75.43-.51.95-.91,1.57-1.21.62-.3,1.32-.45,2.11-.45.66,0,1.29.13,1.9.4.6.27,1.09.68,1.46,1.25h.04v-1.35h3.27v9.52ZM57.31,10.54c0-.35-.06-.69-.18-1.01-.12-.32-.29-.61-.52-.86-.23-.25-.49-.44-.8-.58-.31-.14-.66-.21-1.06-.21s-.74.07-1.04.21c-.3.14-.56.33-.77.57-.21.24-.37.52-.49.84-.11.32-.17.67-.17,1.03s.06.69.17,1.01c.11.32.27.61.49.85.21.25.47.44.77.59.3.15.65.22,1.04.22s.75-.07,1.07-.22c.32-.15.58-.34.8-.58.22-.24.39-.52.51-.84.12-.32.18-.67.18-1.03Z"/>
        <path class="cls-1" d="M67.68,1.9c0,.27-.05.52-.16.75s-.25.43-.42.6c-.18.17-.39.3-.63.4-.25.1-.5.15-.77.15-.56,0-1.03-.19-1.41-.56-.38-.37-.57-.82-.57-1.34,0-.25.05-.5.15-.73.1-.23.24-.43.42-.6.18-.17.39-.31.63-.41.24-.11.5-.16.78-.16.27,0,.52.05.77.15.25.1.46.23.63.4.18.17.32.37.42.6.11.23.16.48.16.75ZM63.97,15.77V5.26h3.46v10.51h-3.46Z"/>
        <path class="cls-1" d="M78.04,15.98v-5.74c0-.3-.02-.58-.07-.84-.05-.27-.13-.5-.24-.71-.11-.2-.27-.37-.47-.49-.2-.12-.46-.18-.77-.18s-.58.06-.81.18c-.23.12-.43.28-.58.5-.16.21-.27.45-.35.73s-.12.56-.12.85v5.7h-3.48V5.47h3.36v1.46h.04c.13-.23.29-.45.5-.67.2-.22.44-.4.72-.56.27-.15.57-.28.9-.38.32-.1.67-.15,1.03-.15.7,0,1.3.13,1.79.38.49.25.89.58,1.19.98.3.4.52.86.65,1.38.13.52.2,1.04.2,1.56v6.5h-3.48Z"/>
        <path class="cls-1" d="M90.33,8.57c-.28-.27-.61-.49-.99-.68-.38-.18-.78-.27-1.2-.27-.32,0-.62.06-.9.19-.27.13-.41.35-.41.65s.15.51.45.63c.3.13.79.27,1.47.42.39.08.79.2,1.19.36.4.16.76.36,1.09.61s.58.56.78.93c.2.37.3.8.3,1.31,0,.66-.13,1.22-.4,1.68-.27.46-.62.83-1.04,1.11-.43.28-.91.49-1.45.61s-1.07.19-1.6.19c-.86,0-1.7-.14-2.52-.41s-1.51-.68-2.06-1.21l1.94-2.05c.31.34.69.62,1.14.84.45.23.93.34,1.44.34.28,0,.56-.07.83-.2.27-.13.41-.37.41-.71s-.17-.56-.51-.72c-.34-.15-.87-.32-1.58-.49-.37-.08-.73-.2-1.1-.34-.37-.14-.69-.33-.98-.57-.29-.24-.52-.53-.71-.89-.18-.35-.27-.77-.27-1.27,0-.63.13-1.17.4-1.61.27-.44.61-.81,1.03-1.09s.89-.49,1.4-.62c.51-.13,1.02-.2,1.53-.2.79,0,1.56.12,2.31.37.75.25,1.39.62,1.91,1.11l-1.9,1.96Z"/>
        <path class="cls-1" d="M6.8,37.06c-.17-.22-.41-.4-.7-.53-.29-.14-.6-.2-.9-.2s-.61.06-.87.19c-.26.13-.48.3-.66.52-.18.22-.33.46-.43.75-.1.28-.16.58-.16.9s.05.62.15.9c.1.28.24.53.43.75.19.22.42.38.68.51.26.12.56.18.89.18.31,0,.61-.06.91-.18.3-.12.54-.29.73-.51l1.68,2.05c-.38.37-.87.66-1.47.87-.6.21-1.24.31-1.92.31-.72,0-1.4-.11-2.03-.33-.63-.22-1.17-.54-1.64-.97-.46-.42-.83-.94-1.09-1.54-.27-.6-.4-1.28-.4-2.05s.13-1.42.4-2.03c.27-.6.63-1.11,1.09-1.54.46-.42,1.01-.75,1.64-.98.63-.23,1.3-.34,2.01-.34.33,0,.66.03.99.09.33.06.64.14.94.25.3.1.58.23.83.39.25.15.47.32.65.51l-1.75,2.03Z"/>
        <path class="cls-1" d="M19.46,38.64c0,.75-.14,1.43-.41,2.04-.27.61-.64,1.12-1.11,1.55-.47.42-1.01.75-1.62.99-.61.23-1.27.35-1.97.35s-1.34-.12-1.96-.35c-.62-.23-1.16-.56-1.62-.99s-.83-.94-1.1-1.55c-.27-.61-.41-1.29-.41-2.04s.14-1.42.41-2.03c.27-.6.64-1.11,1.1-1.53.46-.42,1-.74,1.62-.96.62-.22,1.27-.33,1.96-.33s1.36.11,1.97.33c.61.22,1.15.54,1.62.96.47.42.84.93,1.11,1.53.27.6.41,1.28.41,2.03ZM16.55,38.64c0-.29-.05-.58-.15-.87-.1-.28-.24-.53-.42-.75-.18-.21-.41-.39-.68-.53-.27-.14-.58-.2-.94-.2s-.67.07-.94.2c-.27.14-.49.31-.67.53-.18.22-.31.46-.41.75-.09.28-.14.57-.14.87s.05.58.14.87c.09.28.23.54.41.76.18.23.41.41.68.54.27.14.58.2.94.2s.67-.07.94-.2c.27-.14.5-.32.68-.54.18-.23.32-.48.41-.76.09-.28.14-.57.14-.87Z"/>
        <path class="cls-1" d="M33.09,43.27v-5.01c0-.26-.02-.51-.06-.75-.04-.24-.1-.44-.2-.62-.1-.17-.23-.31-.4-.41-.17-.1-.38-.16-.65-.16s-.48.06-.67.17c-.19.11-.35.26-.48.44-.13.18-.22.4-.29.64-.06.24-.09.49-.09.75v4.96h-3.02v-5.23c0-.53-.1-.95-.31-1.25-.21-.31-.54-.46-1-.46-.48,0-.85.19-1.11.57-.26.38-.4.85-.4,1.4v4.97h-3.04v-9.18h2.93v1.27h.04c.11-.2.25-.39.41-.57.17-.18.37-.35.6-.49.23-.14.49-.25.78-.34.29-.09.6-.13.95-.13.66,0,1.23.14,1.69.41.46.27.82.66,1.08,1.16.31-.48.7-.86,1.18-1.14.48-.28,1.06-.42,1.75-.42.63,0,1.15.11,1.58.34.42.23.76.52,1.02.88.26.36.45.77.56,1.22.12.45.18.89.18,1.32v5.68h-3.02Z"/>
        <path class="cls-1" d="M47.21,38.64c0,.64-.1,1.25-.29,1.84-.2.59-.48,1.11-.86,1.56-.37.45-.83.81-1.37,1.08-.54.27-1.15.41-1.84.41-.57,0-1.1-.11-1.6-.34-.5-.23-.9-.54-1.18-.93h-.04v5.44h-3.02v-13.6h2.87v1.12h.06c.28-.37.67-.69,1.17-.97s1.08-.41,1.76-.41,1.27.13,1.81.39c.54.26,1,.61,1.37,1.05.37.44.66.96.87,1.54.2.58.3,1.19.3,1.83ZM44.28,38.64c0-.29-.05-.58-.14-.87-.09-.28-.23-.53-.41-.75-.18-.21-.4-.39-.67-.53-.27-.14-.58-.2-.94-.2s-.65.07-.92.2c-.27.14-.5.31-.69.53-.19.22-.34.47-.44.76-.1.28-.16.57-.16.87s.05.58.16.87c.1.28.25.53.44.76.19.22.42.4.69.53.27.14.58.2.92.2s.67-.07.94-.2c.27-.14.49-.31.67-.53.18-.22.31-.48.41-.76.09-.29.14-.58.14-.88Z"/>
        <path class="cls-1" d="M49.02,35.34c.54-.52,1.17-.9,1.89-1.16.72-.26,1.45-.39,2.2-.39s1.43.1,1.96.29c.53.19.97.49,1.3.88.33.4.57.9.73,1.51.15.61.23,1.33.23,2.16v4.62h-2.76v-.98h-.06c-.23.38-.59.68-1.06.88-.47.21-.99.31-1.54.31-.37,0-.75-.05-1.14-.15-.39-.1-.75-.26-1.08-.48-.33-.22-.59-.52-.8-.88-.21-.37-.31-.82-.31-1.36,0-.66.18-1.2.54-1.6.36-.41.83-.72,1.4-.94s1.21-.37,1.91-.44,1.38-.11,2.05-.11v-.15c0-.45-.16-.79-.48-1-.32-.21-.71-.32-1.18-.32-.43,0-.84.09-1.24.28-.4.18-.74.41-1.02.66l-1.53-1.64ZM54.57,39.27h-.39c-.33,0-.67.02-1,.05-.34.03-.64.09-.9.18-.26.09-.48.21-.65.38-.17.17-.26.38-.26.65,0,.17.04.32.12.44.08.12.18.22.3.29.12.07.26.13.42.16.16.03.31.05.46.05.61,0,1.08-.17,1.41-.51.33-.34.49-.8.49-1.37v-.31Z"/>
        <path class="cls-1" d="M66.06,43.27v-5.01c0-.26-.02-.5-.06-.74-.04-.23-.11-.44-.21-.62-.1-.18-.24-.32-.41-.42-.18-.1-.4-.16-.67-.16s-.51.05-.71.16c-.2.1-.37.25-.51.43-.14.18-.24.4-.3.64-.07.24-.1.49-.1.75v4.97h-3.04v-9.18h2.93v1.27h.04c.11-.2.25-.39.43-.58.18-.19.39-.35.63-.49.24-.14.5-.25.78-.33.28-.09.58-.13.9-.13.61,0,1.14.11,1.57.33.43.22.78.51,1.04.86.26.35.45.75.57,1.21.12.45.18.91.18,1.36v5.68h-3.04Z"/>
        <path class="cls-1" d="M77.54,44.65c-.18.48-.38.91-.6,1.28-.22.37-.49.69-.79.96-.31.26-.67.46-1.08.6-.42.14-.91.2-1.47.2-.28,0-.56-.02-.86-.06-.3-.04-.55-.09-.77-.15l.32-2.54c.14.05.3.09.48.12.17.03.33.05.48.05.46,0,.79-.11.99-.32.2-.22.38-.52.52-.91l.29-.76-3.75-9.03h3.29l2,5.9h.05l1.79-5.9h3.14l-4.03,10.56Z"/>
      </g>
      <path class="cls-2" d="M88.65,31.6c0,1.03-.15,1.92-.44,2.68-.3.76-.71,1.39-1.25,1.89-.54.5-1.19.87-1.95,1.12-.77.25-1.61.37-2.54.37s-1.88-.14-2.86-.42c-.98-.28-1.83-.69-2.54-1.22l1.73-2.47c.51.45,1.07.78,1.68,1,.61.22,1.21.33,1.8.33,1.01,0,1.76-.27,2.25-.8s.73-1.25.73-2.13v-.63h-.06c-.32.42-.76.76-1.31,1.01-.55.25-1.18.38-1.88.38-.8,0-1.51-.14-2.13-.43-.62-.29-1.14-.68-1.57-1.17-.43-.49-.76-1.07-.98-1.72-.23-.65-.34-1.35-.34-2.08s.11-1.43.34-2.09c.22-.66.55-1.25.98-1.75.43-.51.95-.91,1.57-1.21s1.32-.45,2.11-.45c.66,0,1.29.13,1.9.4.6.27,1.09.68,1.46,1.25h.04v-1.35h3.27v9.52ZM85.36,27.27c0-.35-.06-.69-.18-1.01-.12-.32-.29-.61-.52-.86-.23-.25-.49-.44-.8-.58-.31-.14-.66-.21-1.06-.21s-.74.07-1.04.21c-.3.14-.56.33-.77.57-.21.24-.37.52-.49.84-.11.32-.17.67-.17,1.03s.06.69.17,1.01c.11.32.27.61.49.85.21.25.47.44.77.59.3.15.65.22,1.04.22s.75-.07,1.07-.22c.32-.15.58-.34.8-.58.22-.24.39-.52.51-.84s.18-.67.18-1.03Z"/>
      <g>
        <path class="cls-1" d="M81.19,44.68h-.45v-2.49h-1.03v-.35h2.5v.35h-1.03v2.49Z"/>
        <path class="cls-1" d="M84.15,44.03h0l.95-2.18h.7v2.83h-.45v-2.37h0l-1.06,2.37h-.29l-1.06-2.37h0v2.37h-.43v-2.83h.7l.96,2.18Z"/>
      </g>
    </g>
  </g>
</svg>