<?xml version="1.0" encoding="UTF-8"?>
<svg id="Layer_2" data-name="Layer 2" xmlns="http://www.w3.org/2000/svg" viewBox="0 0 95.38 38.15">
  <defs>
    <style>
      .cls-1 {
        fill: #e3e4e5;
      }
    </style>
  </defs>
  <g id="Layer_1-2" data-name="Layer 1">
    <g>
      <g>
        <path class="cls-1" d="M18.34,16.41c0,1.52-.23,2.91-.69,4.16-.46,1.26-1.1,2.33-1.91,3.23-.82.89-1.79,1.59-2.91,2.07-1.13.49-2.35.73-3.66.73s-2.53-.24-3.65-.73-2.09-1.18-2.9-2.07c-.82-.89-1.45-1.97-1.91-3.23-.46-1.26-.69-2.64-.69-4.16s.23-2.92.69-4.16c.46-1.24,1.1-2.29,1.91-3.16.82-.87,1.78-1.54,2.9-2.01,1.12-.47,2.33-.7,3.65-.7s2.54.24,3.66.7c1.13.47,2.1,1.14,2.91,2.01.82.87,1.45,1.92,1.91,3.16.46,1.24.69,2.63.69,4.16ZM13.98,16.41c0-.83-.12-1.61-.36-2.33-.24-.72-.57-1.34-.99-1.86-.42-.51-.93-.92-1.52-1.22-.59-.3-1.25-.45-1.96-.45s-1.36.15-1.95.45c-.59.3-1.09.7-1.52,1.22-.43.51-.76,1.13-.99,1.86-.23.72-.34,1.5-.34,2.33s.12,1.67.36,2.4c.24.73.57,1.36.99,1.88.42.52.92.94,1.51,1.23.59.3,1.24.45,1.95.45s1.36-.15,1.95-.45c.59-.3,1.09-.71,1.52-1.23.43-.52.76-1.15,1-1.88.24-.73.36-1.53.36-2.4Z"/>
        <path class="cls-1" d="M28.75,26.08l-3.64-7.62h-1.38v7.62h-4V6.89h6.42c.81,0,1.6.09,2.37.28.77.19,1.46.51,2.07.96.61.45,1.1,1.05,1.46,1.79.36.74.55,1.66.55,2.76,0,1.3-.31,2.39-.93,3.28-.62.89-1.47,1.52-2.57,1.9l4.4,8.21h-4.76ZM28.59,12.77c0-.45-.08-.82-.25-1.1-.17-.28-.38-.5-.64-.65-.26-.15-.56-.26-.88-.31-.33-.05-.64-.08-.94-.08h-2.16v4.47h1.93c.33,0,.67-.03,1.02-.09.35-.06.67-.18.95-.34.29-.16.52-.4.7-.7.18-.31.27-.7.27-1.19Z"/>
        <path class="cls-1" d="M34.22,26.08V6.89h4.09v19.19h-4.09Z"/>
        <path class="cls-1" d="M52.57,26.11c-1.1.31-2.3.46-3.6.46s-2.59-.24-3.72-.73c-1.13-.49-2.11-1.17-2.93-2.06-.82-.89-1.45-1.95-1.91-3.19-.46-1.24-.69-2.62-.69-4.13s.23-2.93.7-4.17c.47-1.25,1.11-2.31,1.94-3.19.82-.88,1.79-1.55,2.9-2.02,1.11-.47,2.31-.7,3.59-.7s2.57.23,3.71.69,2.07,1.08,2.78,1.86l-2.57,3.33c-.4-.52-.92-.95-1.57-1.29-.65-.33-1.39-.5-2.21-.5-.71,0-1.37.15-1.97.45-.6.3-1.13.71-1.57,1.25-.44.53-.79,1.17-1.03,1.9-.25.73-.37,1.53-.37,2.4s.11,1.7.33,2.44c.22.74.55,1.38.99,1.91.44.53.98.95,1.62,1.25.64.3,1.38.45,2.2.45.48,0,.93-.04,1.36-.12.43-.08.82-.21,1.19-.39v-3.5h-3.21v-3.74h6.94v10.17c-.82.49-1.79.89-2.89,1.19Z"/>
        <path class="cls-1" d="M57.51,26.08V6.89h4.09v19.19h-4.09Z"/>
        <path class="cls-1" d="M74.49,26.08l-6.78-12.55h-.07l.1,12.55h-3.95V6.89h4.64l6.75,12.52h.07l-.1-12.52h3.95v19.19h-4.61Z"/>
        <path class="cls-1" d="M90.18,11.88c-.35-.51-.81-.91-1.37-1.21-.56-.3-1.11-.45-1.63-.45-.27,0-.54.03-.82.08-.28.05-.53.16-.75.31-.22.15-.41.35-.56.6-.15.24-.23.56-.23.94,0,.33.06.6.18.81s.29.41.52.57c.23.16.5.31.82.45.32.14.67.28,1.07.42.57.22,1.17.46,1.78.72.62.26,1.18.61,1.69,1.04s.93.97,1.26,1.61c.33.64.5,1.44.5,2.4,0,1.1-.18,2.06-.53,2.86-.36.8-.84,1.47-1.44,1.99-.6.52-1.29.91-2.07,1.17s-1.58.38-2.4.38c-1.21,0-2.37-.24-3.5-.72-1.13-.48-2.06-1.16-2.81-2.05l2.66-3.09c.41.58.96,1.06,1.63,1.45.67.39,1.34.58,2.01.58.3,0,.59-.04.88-.11.29-.07.53-.19.75-.35.21-.16.38-.38.51-.65.13-.27.19-.6.19-.98s-.08-.67-.24-.92c-.16-.25-.39-.48-.68-.69-.29-.21-.66-.4-1.09-.57-.44-.17-.93-.36-1.49-.56-.54-.2-1.07-.43-1.58-.7-.52-.27-.98-.62-1.38-1.04-.4-.42-.73-.94-.98-1.55-.25-.61-.37-1.34-.37-2.21,0-1.07.19-1.98.57-2.74s.88-1.38,1.5-1.87c.62-.49,1.32-.84,2.09-1.07.78-.23,1.56-.34,2.35-.34.95,0,1.92.2,2.91.6.99.4,1.86.99,2.6,1.76l-2.59,3.12Z"/>
      </g>
      <g>
        <path class="cls-1" d="M8.84,37.88l.06-7.64h-.04l-2.53,7.64h-1.65l-2.46-7.64h-.04l.06,7.64H0v-10.8h3.34l2.22,6.92h.06l2.12-6.92h3.4v10.8h-2.3Z"/>
        <path class="cls-1" d="M19.01,37.88l-.76-2.12h-3.77l-.72,2.12h-2.56l4.09-10.8h2.28l4.05,10.8h-2.61ZM16.39,29.96l-1.24,3.7h2.45l-1.21-3.7Z"/>
        <path class="cls-1" d="M27.88,37.88l-3.92-7.06h-.04l.06,7.06h-2.28v-10.8h2.68l3.91,7.04h.04l-.05-7.04h2.28v10.8h-2.67Z"/>
        <path class="cls-1" d="M38.43,37.88l-.76-2.12h-3.77l-.72,2.12h-2.56l4.09-10.8h2.28l4.05,10.8h-2.61ZM35.81,29.96l-1.24,3.7h2.45l-1.21-3.7Z"/>
        <path class="cls-1" d="M47.85,37.89c-.64.17-1.33.26-2.09.26s-1.5-.14-2.15-.41c-.66-.27-1.22-.66-1.69-1.16-.47-.5-.84-1.1-1.11-1.79-.27-.7-.4-1.47-.4-2.33s.14-1.65.41-2.35c.27-.7.64-1.3,1.12-1.79.48-.49,1.04-.87,1.68-1.14.64-.26,1.34-.4,2.08-.4s1.49.13,2.15.39,1.2.61,1.61,1.04l-1.49,1.88c-.23-.29-.53-.54-.91-.72-.38-.19-.8-.28-1.28-.28-.41,0-.79.08-1.14.25-.35.17-.65.4-.91.7-.26.3-.46.66-.6,1.07-.14.41-.21.86-.21,1.35s.06.96.19,1.37c.13.42.32.78.57,1.07.25.3.56.53.94.7.37.17.8.25,1.27.25.28,0,.54-.02.78-.07s.48-.12.69-.22v-1.97h-1.86v-2.1h4.02v5.72c-.48.27-1.03.5-1.67.67Z"/>
        <path class="cls-1" d="M50.7,37.88v-10.8h6.55v2.21h-4.28v2.03h4.05v2.09h-4.05v2.24h4.53v2.23h-6.8Z"/>
        <path class="cls-1" d="M67.15,37.88l.06-7.64h-.04l-2.53,7.64h-1.65l-2.46-7.64h-.04l.06,7.64h-2.22v-10.8h3.34l2.22,6.92h.06l2.12-6.92h3.4v10.8h-2.3Z"/>
        <path class="cls-1" d="M70.71,37.88v-10.8h6.55v2.21h-4.28v2.03h4.05v2.09h-4.05v2.24h4.53v2.23h-6.8Z"/>
        <path class="cls-1" d="M84.52,37.88l-3.92-7.06h-.04l.06,7.06h-2.28v-10.8h2.68l3.91,7.04h.04l-.05-7.04h2.28v10.8h-2.67Z"/>
        <path class="cls-1" d="M92.63,29.31v8.57h-2.35v-8.57h-2.75v-2.23h7.86v2.23h-2.75Z"/>
      </g>
      <g>
        <path class="cls-1" d="M.28.13h1.39c.24,0,.47.03.67.08.2.05.37.14.51.25s.25.26.33.43c.08.18.12.39.12.63s-.04.47-.13.65c-.08.18-.2.33-.35.44-.15.11-.32.2-.53.25-.2.05-.42.08-.66.08h-.72v2.21H.28V.13ZM.91,2.35h.67c.15,0,.3-.02.43-.05s.24-.08.34-.14c.09-.06.17-.15.22-.25.05-.1.08-.23.08-.38s-.03-.28-.08-.38-.13-.18-.22-.25c-.09-.06-.2-.11-.33-.13-.13-.03-.27-.04-.42-.04h-.69v1.63Z"/>
        <path class="cls-1" d="M8.33,2.64c0,.39-.06.75-.18,1.07-.12.32-.29.6-.5.84-.21.23-.47.42-.76.55-.3.13-.62.2-.96.2s-.67-.07-.96-.2c-.29-.13-.55-.31-.76-.55-.21-.23-.38-.51-.5-.84-.12-.32-.18-.68-.18-1.07s.06-.75.18-1.08c.12-.32.29-.6.5-.83.21-.23.47-.41.76-.54.29-.13.61-.19.96-.19s.67.06.96.19c.3.13.55.31.76.54.21.23.38.51.5.83.12.32.18.68.18,1.08ZM7.65,2.64c0-.27-.04-.53-.12-.78s-.2-.46-.35-.64c-.15-.18-.33-.33-.54-.44-.21-.11-.45-.16-.72-.16s-.5.05-.71.16c-.21.11-.39.25-.54.44-.15.19-.26.4-.34.64s-.12.5-.12.78.04.54.12.79c.08.25.2.46.35.64.15.18.33.33.54.43.21.1.45.16.71.16s.5-.05.71-.16c.21-.1.4-.25.55-.43.15-.18.27-.4.35-.64.08-.25.12-.51.12-.79Z"/>
        <path class="cls-1" d="M10.05,4.14h.01L11.13.13h.7l1.06,4.01h.01L13.91.13h.67l-1.33,5.03h-.66l-1.1-4.05h-.01l-1.1,4.05h-.66L8.37.13h.69l1,4.01Z"/>
        <path class="cls-1" d="M15.48,4.54h2.38v.63h-3.01V.13h2.91v.62h-2.28v1.51h2.14v.6h-2.14v1.68Z"/>
        <path class="cls-1" d="M18.99,5.16h-.64V.13h1.46c.22,0,.43.02.62.07s.37.13.52.24c.15.11.26.25.35.43.09.18.13.39.13.65,0,.37-.1.67-.31.9-.21.23-.47.37-.8.43l1.27,2.31h-.77l-1.16-2.24h-.68v2.24ZM18.99,2.33h.73c.15,0,.29-.01.42-.04s.24-.07.34-.14c.1-.06.17-.15.23-.25.06-.1.08-.23.08-.38s-.03-.28-.08-.38c-.06-.1-.13-.18-.22-.25s-.2-.11-.32-.13c-.12-.03-.25-.04-.39-.04h-.78v1.61Z"/>
        <path class="cls-1" d="M22.59,4.54h2.38v.63h-3.01V.13h2.91v.62h-2.28v1.51h2.14v.6h-2.14v1.68Z"/>
        <path class="cls-1" d="M25.46.13h1.56c.29,0,.58.05.87.14.29.1.55.24.79.45s.43.46.57.78c.15.32.22.7.22,1.14s-.07.8-.22,1.12-.34.58-.57.78c-.24.21-.5.36-.79.46-.29.1-.58.15-.87.15h-1.56V.13ZM26.1,4.54h.8c.27,0,.53-.04.76-.13.23-.09.43-.21.6-.37.17-.16.3-.36.39-.6.09-.24.14-.5.14-.8s-.05-.59-.14-.82c-.09-.24-.23-.43-.39-.59-.17-.16-.37-.28-.6-.36-.23-.08-.49-.12-.76-.12h-.8v3.8Z"/>
        <path class="cls-1" d="M31.26.13h1.57c.17,0,.34.02.51.06s.32.11.46.21.24.23.33.39c.08.16.13.36.13.6,0,.28-.07.51-.22.7s-.34.32-.58.39h0c.15.03.28.07.4.14s.23.15.32.25c.09.1.16.23.21.37.05.14.07.3.07.48,0,.24-.04.45-.13.63-.09.18-.21.33-.37.44s-.33.2-.54.26-.43.09-.66.09h-1.5V.13ZM31.9,2.25h.83c.12,0,.23-.02.34-.05.11-.03.2-.08.29-.14.08-.06.15-.14.19-.24s.07-.21.07-.35c0-.27-.09-.46-.27-.58-.18-.12-.42-.17-.73-.17h-.73v1.54ZM31.9,4.57h.8c.13,0,.27-.01.4-.04s.26-.07.37-.14c.11-.07.2-.16.26-.27.07-.11.1-.25.1-.42,0-.3-.09-.51-.28-.65s-.45-.2-.8-.2h-.85v1.71Z"/>
        <path class="cls-1" d="M36.81,5.16h-.64v-2.18l-1.7-2.86h.78l1.26,2.28,1.26-2.28h.74l-1.7,2.86v2.18Z"/>
      </g>
    </g>
  </g>
</svg>